<svg width="24" height="25" viewBox="0 0 24 25" fill="none" xmlns="http://www.w3.org/2000/svg">
<path fill-rule="evenodd" clip-rule="evenodd" d="M13.2355 3.27881V4.15934C13.2355 4.61967 12.8623 4.99284 12.402 4.99284C11.9417 4.99284 11.5685 4.61967 11.5685 4.15934V3.27881C11.5685 2.81848 11.9417 2.44531 12.402 2.44531C12.8623 2.44531 13.2355 2.81848 13.2355 3.27881ZM7.09719 6.0302L6.50782 5.42974C6.18232 5.09812 5.65458 5.09812 5.32908 5.42974C5.00358 5.76136 5.00358 6.29903 5.32908 6.63065L5.91845 7.2311C6.24395 7.56272 6.77169 7.56272 7.09719 7.2311C7.42269 6.89948 7.42269 6.36182 7.09719 6.0302ZM4.05132 11.7862H3.24917C2.78018 11.7862 2.39999 12.1664 2.39999 12.6354C2.39999 13.1044 2.78018 13.4846 3.24917 13.4846H4.05132C4.5203 13.4846 4.90049 13.1044 4.90049 12.6354C4.90049 12.1664 4.5203 11.7862 4.05132 11.7862ZM18.2957 5.42968L17.7063 6.03013C17.3808 6.36176 17.3808 6.89942 17.7063 7.23104C18.0318 7.56266 18.5596 7.56266 18.8851 7.23104L19.4744 6.63059C19.7999 6.29897 19.7999 5.7613 19.4744 5.42968C19.1489 5.09806 18.6212 5.09806 18.2957 5.42968ZM20.7527 11.7862H21.5548C22.0238 11.7862 22.404 12.1664 22.404 12.6354C22.404 13.1044 22.0238 13.4846 21.5548 13.4846H20.7527C20.2837 13.4846 19.9035 13.1044 19.9035 12.6354C19.9035 12.1664 20.2837 11.7862 20.7527 11.7862ZM19.4746 18.6402L18.8853 18.0397C18.5598 17.7081 18.032 17.7081 17.7065 18.0397C17.381 18.3714 17.381 18.909 17.7065 19.2406L18.2959 19.8411C18.6214 20.1727 19.1491 20.1727 19.4746 19.8411C19.8001 19.5095 19.8001 18.9718 19.4746 18.6402ZM13.2355 21.1116V21.9921C13.2355 22.4525 12.8623 22.8256 12.402 22.8256C11.9417 22.8256 11.5685 22.4525 11.5685 21.9921V21.1116C11.5685 20.6513 11.9417 20.2781 12.402 20.2781C12.8623 20.2781 13.2355 20.6513 13.2355 21.1116ZM5.91858 18.0398L5.32921 18.6403C5.00371 18.9719 5.00371 19.5096 5.32921 19.8412C5.65471 20.1728 6.18245 20.1728 6.50795 19.8412L7.09732 19.2407C7.42281 18.9091 7.42281 18.3714 7.09731 18.0398C6.77182 17.7082 6.24408 17.7082 5.91858 18.0398ZM18 12.8372C18 15.8756 15.5823 18.3387 12.6 18.3387C9.61766 18.3387 7.19999 15.8756 7.19999 12.8372C7.19999 9.79873 9.61766 7.33559 12.6 7.33559C15.5823 7.33559 18 9.79873 18 12.8372Z" fill="#F87C58"/>
</svg>
