<svg width="24" height="24" viewBox="0 0 24 24" fill="none" xmlns="http://www.w3.org/2000/svg">
<path d="M7.08525 12.675C7.2105 12.6124 7.31572 12.516 7.38902 12.3967C7.46232 12.2774 7.50076 12.14 7.5 12V8.25H16.5C16.6989 8.25 16.8897 8.17098 17.0303 8.03033C17.171 7.88968 17.25 7.69891 17.25 7.5C17.25 7.30109 17.171 7.11032 17.0303 6.96967C16.8897 6.82902 16.6989 6.75 16.5 6.75H7.5V3C7.5 2.86072 7.46121 2.72418 7.38799 2.6057C7.31476 2.48722 7.20999 2.39147 7.08541 2.32918C6.96083 2.26689 6.82137 2.24052 6.68265 2.25303C6.54392 2.26554 6.41143 2.31643 6.3 2.4L0.3 6.9C0.206853 6.96986 0.13125 7.06045 0.0791796 7.16459C0.0271088 7.26873 0 7.38357 0 7.5C0 7.61643 0.0271088 7.73127 0.0791796 7.83541C0.13125 7.93955 0.206853 8.03014 0.3 8.1L6.3 12.6C6.42982 12.6974 6.58772 12.75 6.75 12.75C6.86602 12.7511 6.98074 12.7254 7.08525 12.675Z" fill="white"/>
<path d="M17.7 11.4C17.5886 11.3164 17.4561 11.2655 17.3174 11.253C17.1786 11.2405 17.0392 11.2669 16.9146 11.3292C16.79 11.3915 16.6852 11.4872 16.612 11.6057C16.5388 11.7242 16.5 11.8607 16.5 12V15.75H7.5C7.30109 15.75 7.11032 15.829 6.96967 15.9697C6.82902 16.1103 6.75 16.3011 6.75 16.5C6.75 16.6989 6.82902 16.8897 6.96967 17.0303C7.11032 17.171 7.30109 17.25 7.5 17.25H16.5V21C16.5 21.1393 16.5388 21.2758 16.612 21.3943C16.6852 21.5128 16.79 21.6085 16.9146 21.6708C17.0392 21.7331 17.1786 21.7595 17.3174 21.747C17.4561 21.7345 17.5886 21.6836 17.7 21.6L23.7 17.1C23.7931 17.0301 23.8687 16.9396 23.9208 16.8354C23.9729 16.7313 24 16.6164 24 16.5C24 16.3836 23.9729 16.2687 23.9208 16.1646C23.8687 16.0604 23.7931 15.9699 23.7 15.9L17.7 11.4Z" fill="white"/>
</svg>
