<svg width="16" height="16" viewBox="0 0 16 16" fill="none" xmlns="http://www.w3.org/2000/svg">
<path fill-rule="evenodd" clip-rule="evenodd" d="M5.3335 0.667969C4.96531 0.667969 4.66683 0.966446 4.66683 1.33464V2.02445C2.61218 2.21431 1.3335 3.56165 1.3335 5.69262V11.5879C1.3335 13.9203 2.82689 15.3346 5.1808 15.3346H10.8195C13.1757 15.3346 14.6669 13.9434 14.6669 11.6372V5.69262C14.6735 3.559 13.3961 2.21113 11.3335 2.02379V1.33463C11.3335 0.966445 11.035 0.667969 10.6668 0.667969C10.2986 0.667969 10.0002 0.966445 10.0002 1.33463V2.0013H6.00016V1.33464C6.00016 0.966446 5.70169 0.667969 5.3335 0.667969ZM4.66683 3.36422V4.0013C4.66683 4.36949 4.96531 4.66797 5.3335 4.66797C5.70169 4.66797 6.00016 4.36949 6.00016 4.0013V3.33464H10.0002V4.0013C10.0002 4.36949 10.2986 4.66797 10.6668 4.66797C11.035 4.66797 11.3335 4.36949 11.3335 4.0013V3.36327C12.6464 3.5196 13.3378 4.31368 13.3335 5.69054V6.0013C13.3335 6.0013 13.3335 6.0013 13.3335 6.0013H2.66683V5.69262C2.66683 4.31871 3.36031 3.52302 4.66683 3.36422ZM2.66683 7.33464L2.66683 11.5879C2.66683 13.1672 3.54754 14.0013 5.1808 14.0013H10.8195C12.4592 14.0013 13.3335 13.1855 13.3335 11.6372L13.3335 7.33464C13.3335 7.33464 13.3335 7.33464 13.3335 7.33464H2.66683Z" fill="#212121"/>
</svg>
