<svg width="32" height="32" viewBox="0 0 32 32" fill="none" xmlns="http://www.w3.org/2000/svg">
<path fill-rule="evenodd" clip-rule="evenodd" d="M17.7333 16.2946C19.1729 15.0486 20 13.2386 20 11.3346C20 7.65274 17.0152 4.66797 13.3333 4.66797C9.65144 4.66797 6.66667 7.65274 6.66667 11.3346C6.66665 13.2386 7.49381 15.0486 8.93334 16.2946C5.12126 18.0208 2.67068 21.8166 2.66667 26.0013C2.66667 26.7377 3.26363 27.3346 4.00001 27.3346C4.73638 27.3346 5.33334 26.7377 5.33334 26.0013C5.33334 21.583 8.91506 18.0013 13.3333 18.0013C17.7516 18.0013 21.3333 21.583 21.3333 26.0013C21.3333 26.7377 21.9303 27.3346 22.6667 27.3346C23.4031 27.3346 24 26.7377 24 26.0013C23.996 21.8166 21.5454 18.0208 17.7333 16.2946ZM13.3333 15.3346C11.1242 15.3346 9.33334 13.5438 9.33334 11.3346C9.33334 9.1255 11.1242 7.33464 13.3333 7.33464C15.5425 7.33464 17.3333 9.1255 17.3333 11.3346C17.3333 12.3955 16.9119 13.4129 16.1618 14.1631C15.4116 14.9132 14.3942 15.3346 13.3333 15.3346ZM27.88 16.0013L28.9467 14.948C29.2849 14.6098 29.417 14.1168 29.2932 13.6548C29.1694 13.1928 28.8085 12.8319 28.3465 12.7081C27.8845 12.5843 27.3916 12.7164 27.0533 13.0546L26 14.1213L24.9467 13.0546C24.6085 12.7164 24.1155 12.5843 23.6535 12.7081C23.1915 12.8319 22.8306 13.1928 22.7068 13.6548C22.583 14.1168 22.7151 14.6098 23.0533 14.948L24.12 16.0013L23.0533 17.0546C22.8009 17.305 22.6589 17.6458 22.6589 18.0013C22.6589 18.3568 22.8009 18.6976 23.0533 18.948C23.3037 19.2004 23.6445 19.3424 24 19.3424C24.3555 19.3424 24.6963 19.2004 24.9467 18.948L26 17.8813L27.0533 18.948C27.3037 19.2004 27.6445 19.3424 28 19.3424C28.3555 19.3424 28.6963 19.2004 28.9467 18.948C29.1991 18.6976 29.3411 18.3568 29.3411 18.0013C29.3411 17.6458 29.1991 17.305 28.9467 17.0546L27.88 16.0013Z" fill="#E6521F"/>
</svg>
