<svg width="24" height="24" viewBox="0 0 24 24" fill="none" xmlns="http://www.w3.org/2000/svg">
<path fill-rule="evenodd" clip-rule="evenodd" d="M20.3058 13.9827C20.6636 14.1727 20.9396 14.4728 21.1338 14.7729C21.512 15.393 21.4813 16.1531 21.1133 16.8233L20.3978 18.0235C20.0196 18.6636 19.3143 19.0637 18.5886 19.0637C18.2308 19.0637 17.8322 18.9637 17.5051 18.7637C17.2393 18.5936 16.9327 18.5336 16.6056 18.5336C15.5937 18.5336 14.7453 19.3638 14.7146 20.354C14.7146 21.5042 13.7742 22.4044 12.5987 22.4044H11.2086C10.0229 22.4044 9.08249 21.5042 9.08249 20.354C9.06205 19.3638 8.21365 18.5336 7.20171 18.5336C6.8644 18.5336 6.55775 18.5936 6.30221 18.7637C5.97512 18.9637 5.56626 19.0637 5.21872 19.0637C4.48276 19.0637 3.77747 18.6636 3.39927 18.0235L2.69398 16.8233C2.31578 16.1731 2.29534 15.393 2.67354 14.7729C2.83708 14.4728 3.14373 14.1727 3.49127 13.9827C3.77747 13.8427 3.96146 13.6126 4.13523 13.3426C4.64631 12.4824 4.33966 11.3522 3.47082 10.8421C2.45888 10.272 2.13179 9.00171 2.71442 8.01151L3.39927 6.83128C3.99213 5.84108 5.25961 5.49101 6.28177 6.07112C7.17105 6.55122 8.32609 6.23116 8.84739 5.38099C9.01094 5.10093 9.10293 4.80087 9.08249 4.50081C9.06205 4.11073 9.17449 3.74066 9.3687 3.4406C9.7469 2.82047 10.4317 2.42039 11.1779 2.40039H12.6192C13.3756 2.40039 14.0604 2.82047 14.4386 3.4406C14.6226 3.74066 14.7453 4.11073 14.7146 4.50081C14.6942 4.80087 14.7862 5.10093 14.9497 5.38099C15.471 6.23116 16.626 6.55122 17.5255 6.07112C18.5375 5.49101 19.8152 5.84108 20.3978 6.83128L21.0827 8.01151C21.6755 9.00171 21.3484 10.272 20.3263 10.8421C19.4574 11.3522 19.1508 12.4824 19.6721 13.3426C19.8356 13.6126 20.0196 13.8427 20.3058 13.9827ZM9.01097 12.4124C9.01097 13.9828 10.3091 15.233 11.9139 15.233C13.5187 15.233 14.7862 13.9828 14.7862 12.4124C14.7862 10.8421 13.5187 9.58188 11.9139 9.58188C10.3091 9.58188 9.01097 10.8421 9.01097 12.4124Z" fill="white"/>
</svg>
