<svg width="24" height="24" viewBox="0 0 24 24" fill="none" xmlns="http://www.w3.org/2000/svg">
<path fill-rule="evenodd" clip-rule="evenodd" d="M17.9882 2H5.87976C3.44154 2 2.02172 4.7543 3.43614 6.74033L7.56551 12.5384C7.92742 13.0466 8.1219 13.6549 8.1219 14.2788V18.3293C8.1219 20.3566 9.76532 22 11.7926 22C13.8199 22 15.4633 20.3566 15.4633 18.3293V14.3385C15.4633 13.687 15.6754 13.0532 16.0675 12.5329L20.384 6.80562C21.8739 4.82882 20.4636 2 17.9882 2ZM5.87976 4H17.9882C18.8134 4 19.2835 4.94292 18.7868 5.60186L14.4704 11.3291C13.8168 12.1962 13.4633 13.2526 13.4633 14.3385V18.3293C13.4633 19.252 12.7153 20 11.7926 20C10.8699 20 10.1219 19.252 10.1219 18.3293V14.2788C10.1219 13.2391 9.79777 12.2252 9.19461 11.3782L5.06522 5.58011C4.59374 4.9181 5.06702 4 5.87976 4Z" fill="#212121"/>
</svg>
