<svg width="24" height="24" viewBox="0 0 24 24" fill="none" xmlns="http://www.w3.org/2000/svg">
<path d="M10.5 4.5C10.5 4.10218 10.658 3.72064 10.9393 3.43934C11.2207 3.15804 11.6022 3 12 3C12.3978 3 12.7794 3.15804 13.0607 3.43934C13.342 3.72064 13.5 4.10218 13.5 4.5V6H16.5V4.5C16.5 3.30653 16.0259 2.16193 15.182 1.31802C14.3381 0.474106 13.1935 0 12 0C10.8065 0 9.66194 0.474106 8.81803 1.31802C7.97411 2.16193 7.50001 3.30653 7.50001 4.5V6H10.5V4.5Z" fill="white"/>
<path d="M22.305 20.6685L20.991 8.835C20.9504 8.46797 20.7758 8.12882 20.5007 7.88249C20.2256 7.63616 19.8693 7.49997 19.5 7.5H4.50001C4.13073 7.49997 3.77443 7.63616 3.49932 7.88249C3.22421 8.12882 3.04963 8.46797 3.00901 8.835L1.69501 20.6685C1.64839 21.0878 1.69072 21.5121 1.81923 21.9139C1.94774 22.3157 2.15954 22.6859 2.44081 23.0003C2.72207 23.3147 3.06648 23.5662 3.45154 23.7385C3.8366 23.9107 4.25367 23.9998 4.67551 24H19.3245C19.7463 23.9998 20.1634 23.9107 20.5485 23.7385C20.9335 23.5662 21.2779 23.3147 21.5592 23.0003C21.8405 22.6859 22.0523 22.3157 22.1808 21.9139C22.3093 21.5121 22.3516 21.0878 22.305 20.6685Z" fill="white"/>
</svg>
