<svg width="20" height="20" viewBox="0 0 20 20" fill="none" xmlns="http://www.w3.org/2000/svg">
<path d="M8.33331 11.6676C8.60488 11.9448 8.92902 12.165 9.28675 12.3153C9.64448 12.4656 10.0286 12.5431 10.4166 12.5431C10.8047 12.5431 11.1888 12.4656 11.5465 12.3153C11.9043 12.165 12.2284 11.9448 12.5 11.6676L15.8333 8.3343C16.3858 7.78176 16.6963 7.03237 16.6963 6.25097C16.6963 5.46956 16.3858 4.72017 15.8333 4.16763C15.2808 3.6151 14.5314 3.30469 13.75 3.30469C12.9686 3.30469 12.2192 3.6151 11.6666 4.16763L11.25 4.5843" stroke="#A0AEC0" stroke-width="1.5" stroke-linecap="round" stroke-linejoin="round"/>
<path d="M11.6667 8.33246C11.3951 8.05529 11.0709 7.8351 10.7132 7.68478C10.3555 7.53446 9.97135 7.45703 9.58332 7.45703C9.19529 7.45703 8.81116 7.53446 8.45343 7.68478C8.0957 7.8351 7.77155 8.05529 7.49999 8.33246L4.16666 11.6658C3.61412 12.2183 3.30371 12.9677 3.30371 13.7491C3.30371 14.5305 3.61412 15.2799 4.16666 15.8325C4.71919 16.385 5.46859 16.6954 6.24999 16.6954C7.03139 16.6954 7.78079 16.385 8.33332 15.8325L8.74999 15.4158" stroke="#A0AEC0" stroke-width="1.5" stroke-linecap="round" stroke-linejoin="round"/>
</svg>
