<svg width="24" height="24" viewBox="0 0 24 24" fill="none" xmlns="http://www.w3.org/2000/svg">
<path d="M16.484 1.12483C16.168 0.94983 15.778 0.95883 15.469 1.15183L7.713 5.99983H4C1.794 5.99983 0 7.79383 0 9.99983C0 12.2058 1.794 13.9998 4 13.9998H7.713L15.47 18.8478C15.632 18.9488 15.815 18.9998 16 18.9998C16.167 18.9998 16.334 18.9578 16.484 18.8748C16.803 18.6978 17 18.3628 17 17.9998V1.99983C17 1.63683 16.803 1.30183 16.484 1.12483Z" fill="white"/>
<path d="M24 9H20V11H24V9Z" fill="white"/>
<path d="M21.8937 3.13467L18.4284 5.13477L19.4282 6.86697L22.8935 4.86687L21.8937 3.13467Z" fill="white"/>
<path d="M19.4278 13.133L18.428 14.8652L21.8933 16.8653L22.8931 15.1331L19.4278 13.133Z" fill="white"/>
<path d="M7.702 16H4.19L6.925 22.047C7.287 22.858 8.237 23.221 9.048 22.86C9.859 22.498 10.222 21.548 9.861 20.737L7.702 16Z" fill="white"/>
</svg>
