<svg width="30" height="24" viewBox="0 0 30 24" fill="none" xmlns="http://www.w3.org/2000/svg">
<g clip-path="url(#clip0_3134_19498)">
<g clip-path="url(#clip1_3134_19498)">
<path fill-rule="evenodd" clip-rule="evenodd" d="M24.6152 0.742188H7.38443C5.46135 0.742188 4.8075 0.964768 4.1152 1.29864C3.34597 1.66961 2.76904 2.26316 2.38443 2.96799C1.99981 3.67283 1.76904 4.30348 1.76904 6.15832V16.8793C1.76904 18.697 1.99981 19.3648 2.34597 20.0325C2.73058 20.7744 3.34597 21.3309 4.07674 21.7019C4.76904 22.0728 5.46135 22.2583 7.34597 22.2583H24.6152C26.4998 22.2583 27.1921 22.0357 27.8844 21.7019C28.6537 21.3309 29.2306 20.7373 29.6152 20.0325C29.9998 19.3648 30.1921 18.697 30.1921 16.8793V6.15832C30.1921 4.34057 29.9613 3.67283 29.6152 3.00509C29.2306 2.26316 28.6152 1.7067 27.8844 1.33574C27.1921 0.964768 26.5383 0.742188 24.6152 0.742188Z" fill="#EEEEEE" stroke="white" stroke-width="4"/>
<path fill-rule="evenodd" clip-rule="evenodd" d="M7.38465 1.48438H24.6539C26.3462 1.48438 26.9616 1.66986 27.5385 1.96663C28.1539 2.3005 28.6539 2.74567 28.9616 3.33921C29.0385 3.4505 29.077 3.56179 29.1539 3.71018H2.84619C2.92311 3.59889 2.96158 3.4505 3.0385 3.33921C3.38465 2.74567 3.84619 2.3005 4.46158 1.96663C5.07696 1.63276 5.69235 1.48438 7.38465 1.48438Z" fill="#FF4B4B"/>
<path fill-rule="evenodd" clip-rule="evenodd" d="M29.4612 5.9375C29.4612 6.01169 29.4612 6.08589 29.4612 6.16008V8.16331H2.53809V6.16008C2.53809 6.08589 2.53809 6.01169 2.53809 5.9375H29.4612Z" fill="#FF4B4B"/>
<path fill-rule="evenodd" clip-rule="evenodd" d="M29.4612 10.3867V12.6125H2.53809V10.3867H29.4612Z" fill="#FF4B4B"/>
<path fill-rule="evenodd" clip-rule="evenodd" d="M29.4612 16.8431C29.4612 16.9173 29.4612 16.9915 29.4612 17.0657H2.53809C2.53809 16.9915 2.53809 16.9173 2.53809 16.8431V14.8398H29.4612V16.8431Z" fill="#FF4B4B"/>
<path fill-rule="evenodd" clip-rule="evenodd" d="M29.1535 19.2891C29.115 19.4004 29.0381 19.5487 28.9612 19.66C28.615 20.2536 28.1535 20.7358 27.5381 21.0326C26.9227 21.3665 26.3074 21.5149 24.6535 21.5149H7.38428C5.69197 21.5149 5.07658 21.3294 4.49966 21.0326C3.88428 20.6987 3.38428 20.2536 3.07659 19.66C2.99966 19.5487 2.9612 19.4374 2.88428 19.2891H29.1535Z" fill="#FF4B4B"/>
<path fill-rule="evenodd" clip-rule="evenodd" d="M7.38424 1.48438H15.9996V10.3876H2.53809V6.15857C2.53809 4.52631 2.73039 3.93276 3.03809 3.37631C3.34578 2.81986 3.84578 2.3005 4.46116 1.96663C5.07655 1.63276 5.69193 1.48438 7.38424 1.48438Z" fill="#1CB0F6"/>
<path d="M13.2308 5.04587L12.7308 5.30554C12.5769 5.37974 12.3846 5.34264 12.3077 5.19425C12.2692 5.12006 12.2692 5.08296 12.2692 5.00877L12.3846 4.45232C12.3846 4.41522 12.3846 4.34103 12.3462 4.30393L11.9615 3.93296C11.8462 3.82167 11.8462 3.63619 11.9615 3.4878C12 3.4507 12.0769 3.41361 12.1538 3.41361L12.6538 3.33941C12.6923 3.33941 12.7692 3.30232 12.7692 3.26522L13 2.78296C13.0769 2.63458 13.2692 2.56038 13.4231 2.63458C13.5 2.67167 13.5385 2.70877 13.5769 2.78296L13.8077 3.26522C13.8462 3.30232 13.9231 3.33941 13.9615 3.33941L14.5 3.41361C14.6538 3.4507 14.8077 3.59909 14.7692 3.74748C14.7692 3.82167 14.7308 3.85877 14.6923 3.93296L14.3077 4.30393C14.2692 4.34103 14.2692 4.37812 14.2692 4.45232L14.3462 4.97167C14.3846 5.12006 14.2692 5.30554 14.0769 5.30554C14 5.30554 13.9231 5.30554 13.8846 5.26845L13.3846 5.00877C13.3462 5.00877 13.2692 5.00877 13.2308 5.04587Z" fill="white"/>
<path d="M13.2307 8.75486L12.7307 9.01454C12.5768 9.08873 12.3845 9.05164 12.3076 8.90325C12.2691 8.82906 12.2691 8.79196 12.2691 8.71777L12.346 8.19841C12.346 8.16131 12.346 8.08712 12.3076 8.05002L11.923 7.67906C11.8076 7.56777 11.8076 7.38228 11.923 7.23389C11.9614 7.1968 12.0383 7.1597 12.1153 7.1597L12.6537 7.08551C12.6922 7.08551 12.7691 7.04841 12.7691 7.01131L12.9999 6.52906C13.0768 6.38067 13.2691 6.30648 13.423 6.38067C13.4999 6.41777 13.5383 6.45486 13.5768 6.52906L13.8076 7.01131C13.846 7.04841 13.8845 7.08551 13.923 7.08551L14.4614 7.1597C14.6153 7.1968 14.7691 7.34519 14.7307 7.49357C14.7307 7.56777 14.6922 7.60486 14.6537 7.67906L14.2691 8.05002C14.2307 8.08712 14.2307 8.12422 14.2307 8.19841L14.3076 8.71777C14.346 8.86615 14.2307 9.05164 14.0383 9.05164C13.9614 9.05164 13.8845 9.05164 13.846 9.01454L13.346 8.75486C13.346 8.71777 13.2691 8.71777 13.2307 8.75486Z" fill="white"/>
<path d="M9.38458 5.04587L8.88458 5.30554C8.73073 5.37974 8.53842 5.34264 8.4615 5.19425C8.42304 5.12006 8.42304 5.08296 8.42304 5.00877L8.53842 4.45232C8.53842 4.41522 8.53842 4.34103 8.49996 4.30393L8.11535 3.93296C7.99996 3.82167 7.99996 3.63619 8.11535 3.4878C8.15381 3.4507 8.23073 3.41361 8.30765 3.41361L8.80765 3.33941C8.84612 3.33941 8.92304 3.30232 8.92304 3.26522L9.15381 2.78296C9.23073 2.63458 9.42304 2.56038 9.57689 2.63458C9.65381 2.67167 9.69227 2.70877 9.73073 2.78296L9.9615 3.26522C9.99996 3.30232 10.0769 3.33941 10.1153 3.33941L10.6538 3.41361C10.8077 3.4507 10.9615 3.59909 10.923 3.74748C10.923 3.82167 10.8846 3.85877 10.8461 3.93296L10.4615 4.30393C10.423 4.34103 10.423 4.37812 10.423 4.45232L10.5 4.97167C10.5384 5.12006 10.423 5.30554 10.2307 5.30554C10.1538 5.30554 10.0769 5.30554 10.0384 5.26845L9.53842 5.00877C9.49996 5.00877 9.42304 5.00877 9.38458 5.04587Z" fill="white"/>
<path d="M9.38447 8.75486L8.88447 9.01454C8.73062 9.08873 8.53831 9.05164 8.46139 8.90325C8.42293 8.82906 8.42293 8.79196 8.42293 8.71777L8.49985 8.19841C8.49985 8.16131 8.49985 8.08712 8.46139 8.05002L8.07677 7.67906C7.96139 7.56777 7.96139 7.38228 8.07677 7.23389C8.11523 7.1968 8.19216 7.1597 8.26908 7.1597L8.80754 7.08551C8.846 7.08551 8.92293 7.04841 8.92293 7.01131L9.1537 6.52906C9.23062 6.38067 9.42293 6.30648 9.57677 6.38067C9.6537 6.41777 9.69216 6.45486 9.73062 6.52906L9.96139 7.01131C9.99985 7.04841 10.0383 7.08551 10.0768 7.08551L10.6152 7.1597C10.7691 7.1968 10.9229 7.34519 10.8845 7.49357C10.8845 7.56777 10.846 7.60486 10.8075 7.67906L10.4229 8.05002C10.3845 8.08712 10.3845 8.12422 10.3845 8.19841L10.4614 8.71777C10.4999 8.86615 10.3845 9.05164 10.1922 9.05164C10.1152 9.05164 10.0383 9.05164 9.99985 9.01454L9.49985 8.75486C9.49985 8.71777 9.42293 8.71777 9.38447 8.75486Z" fill="white"/>
<path d="M5.53839 5.04587L5.03839 5.30554C4.88454 5.37974 4.69223 5.30554 4.61531 5.15716C4.57685 5.12006 4.57685 5.04587 4.57685 4.97167L4.69223 4.45232C4.69223 4.41522 4.69223 4.34103 4.65377 4.30393L4.26916 3.93296C4.15377 3.82167 4.15377 3.63619 4.26916 3.4878C4.30762 3.4507 4.38454 3.41361 4.46146 3.41361L4.96146 3.33941C4.99992 3.33941 5.07685 3.30232 5.07685 3.26522L5.30762 2.78296C5.423 2.63458 5.61531 2.56038 5.76916 2.63458C5.84608 2.67167 5.88454 2.70877 5.923 2.78296L6.15377 3.26522C6.15377 3.30232 6.23069 3.33941 6.26916 3.33941L6.80762 3.41361C6.96146 3.4507 7.11531 3.59909 7.07685 3.74748C7.07685 3.82167 7.03839 3.85877 6.99993 3.93296L6.61531 4.30393C6.53839 4.34103 6.53839 4.41522 6.53839 4.45232L6.61531 4.97167C6.65377 5.15716 6.53839 5.30554 6.38454 5.34264C6.30762 5.34264 6.23069 5.34264 6.19223 5.30554L5.69223 5.04587C5.65377 5.00877 5.57685 5.00877 5.53839 5.04587Z" fill="white"/>
<path d="M5.53839 8.7568L5.03839 9.01648C4.88454 9.09067 4.69223 9.05358 4.61531 8.90519C4.57685 8.831 4.57685 8.7939 4.57685 8.71971L4.69223 8.16325C4.69223 8.12616 4.69223 8.05196 4.65377 8.01487L4.26916 7.6439C4.15377 7.53261 4.15377 7.34713 4.26916 7.19874C4.30762 7.16164 4.38454 7.12454 4.46146 7.12454L4.96146 7.05035C4.99992 7.05035 5.07685 7.01325 5.07685 6.97616L5.30762 6.4939C5.38454 6.34551 5.57685 6.27132 5.73069 6.34551C5.80762 6.38261 5.84608 6.41971 5.88454 6.4939L6.11531 6.97616C6.15377 7.01325 6.23069 7.05035 6.26916 7.05035L6.80762 7.12454C6.96146 7.16164 7.11531 7.31003 7.07685 7.45842C7.07685 7.53261 7.03839 7.56971 6.99993 7.6439L6.61531 8.01487C6.57685 8.05196 6.57685 8.08906 6.57685 8.16325L6.65377 8.68261C6.69223 8.831 6.57685 9.01648 6.38454 9.01648C6.30762 9.01648 6.23069 9.01648 6.19223 8.97938L5.69223 8.71971C5.65377 8.71971 5.57685 8.71971 5.53839 8.7568Z" fill="white"/>
</g>
</g>
<defs>
<clipPath id="clip0_3134_19498">
<rect width="30" height="24" fill="white"/>
</clipPath>
<clipPath id="clip1_3134_19498">
<rect width="30" height="23" fill="white" transform="translate(1)"/>
</clipPath>
</defs>
</svg>
