<svg width="24" height="24" viewBox="0 0 24 24" fill="none" xmlns="http://www.w3.org/2000/svg">
<path d="M21 0H3C2.586 0 2.25 0.336 2.25 0.75V23.25C2.25 23.664 2.586 24 3 24H21C21.414 24 21.75 23.664 21.75 23.25V0.75C21.75 0.336 21.414 0 21 0ZM9 18H6V16.5H9V18ZM7.5 13.8105L5.6895 12L6.75 10.9395L7.5 11.6895L9.75 9.4395L10.8105 10.5L7.5 13.8105ZM7.5 8.5605L5.6895 6.75L6.75 5.6895L7.5 6.4395L9.75 4.1895L10.8105 5.25L7.5 8.5605ZM18.75 18H12V16.5H18.75V18ZM18.75 12.75H12V11.25H18.75V12.75ZM18.75 7.5H12V6H18.75V7.5Z" fill="white"/>
</svg>
