<svg width="24" height="24" viewBox="0 0 24 24" fill="none" xmlns="http://www.w3.org/2000/svg">
<path fill-rule="evenodd" clip-rule="evenodd" d="M14.8992 4.31737C12.9896 3.89421 11.0104 3.89421 9.10077 4.31737L8.6469 4.41794C7.43721 4.68599 6.35904 5.29421 5.51782 6.13986L10.6638 9.81637C11.4631 10.3874 12.5369 10.3874 13.3362 9.81637L18.4822 6.13985C17.641 5.29421 16.5628 4.68599 15.3531 4.41794L14.8992 4.31737ZM19.6521 7.76202L14.4988 11.4437C13.004 12.5117 10.9959 12.5117 9.50115 11.4437L4.34792 7.76202C4.13756 8.17962 3.97153 8.62417 3.85592 9.08974C3.38136 11.0009 3.38136 12.9991 3.85592 14.9103C4.43713 17.2509 6.29302 19.0605 8.64689 19.5821L9.10077 19.6826C11.0104 20.1058 12.9896 20.1058 14.8992 19.6826L15.3531 19.5821C17.707 19.0605 19.5629 17.2509 20.1441 14.9103C20.6186 12.9991 20.6186 11.0009 20.1441 9.08975C20.0285 8.62418 19.8624 8.17962 19.6521 7.76202ZM8.66809 2.36473C10.8628 1.87842 13.1372 1.87842 15.3319 2.36473L15.7858 2.4653C18.881 3.15115 21.321 5.53056 22.0851 8.60776C22.6383 10.8354 22.6383 13.1646 22.0851 15.3922C21.321 18.4694 18.881 20.8488 15.7858 21.5347L15.3319 21.6353C13.1372 22.1216 10.8628 22.1216 8.66809 21.6353L8.21422 21.5347C5.11901 20.8488 2.67897 18.4694 1.91487 15.3923C1.36171 13.1646 1.36171 10.8354 1.91487 8.60775C2.67897 5.53056 5.11901 3.15115 8.21422 2.4653L8.66809 2.36473Z" fill="#212121"/>
</svg>
