<svg width="24" height="24" viewBox="0 0 24 24" fill="none" xmlns="http://www.w3.org/2000/svg">
<path fill-rule="evenodd" clip-rule="evenodd" d="M13.6428 3H10.3572H10.3571C9.27335 2.99999 8.39923 2.99998 7.69138 3.05782C6.96253 3.11737 6.32234 3.24318 5.73005 3.54497C4.78924 4.02433 4.02433 4.78924 3.54497 5.73005C3.24318 6.32234 3.11737 6.96253 3.05782 7.69138C2.99998 8.39923 2.99999 9.27335 3 10.3571V10.3572V13.6428V13.6429C2.99999 14.7267 2.99998 15.6007 3.05782 16.3086C3.11737 17.0375 3.24318 17.6777 3.54497 18.27C4.02433 19.2108 4.78924 19.9757 5.73005 20.455C6.32234 20.7568 6.96253 20.8826 7.69138 20.9422C8.39925 21 9.27339 21 10.3572 21H13.6428C14.7266 21 15.6008 21 16.3086 20.9422C17.0375 20.8826 17.6777 20.7568 18.27 20.455C19.2108 19.9757 19.9757 19.2108 20.455 18.27C20.7568 17.6777 20.8826 17.0375 20.9422 16.3086C21 15.6008 21 14.7266 21 13.6428V10.3572C21 9.27339 21 8.39925 20.9422 7.69138C20.8826 6.96253 20.7568 6.32234 20.455 5.73005C19.9757 4.78924 19.2108 4.02433 18.27 3.54497C17.6777 3.24318 17.0375 3.11737 16.3086 3.05782C15.6007 2.99998 14.7267 2.99999 13.6429 3H13.6428ZM6.63803 5.32698C6.90138 5.19279 7.24907 5.10062 7.85424 5.05118C8.47108 5.00078 9.26339 5 10.4 5H13.6C14.7366 5 15.5289 5.00078 16.1458 5.05118C16.7509 5.10062 17.0986 5.19279 17.362 5.32698C17.9265 5.6146 18.3854 6.07354 18.673 6.63803C18.8072 6.90138 18.8994 7.24907 18.9488 7.85424C18.9992 8.47108 19 9.26339 19 10.4V13.6C19 14.7366 18.9992 15.5289 18.9488 16.1458C18.8994 16.7509 18.8072 17.0986 18.673 17.362C18.3854 17.9265 17.9265 18.3854 17.362 18.673C17.0986 18.8072 16.7509 18.8994 16.1458 18.9488C15.5289 18.9992 14.7366 19 13.6 19H10.4C9.26339 19 8.47108 18.9992 7.85424 18.9488C7.24907 18.8994 6.90138 18.8072 6.63803 18.673C6.07354 18.3854 5.6146 17.9265 5.32698 17.362C5.19279 17.0986 5.10062 16.7509 5.05118 16.1458C5.00078 15.5289 5 14.7366 5 13.6V10.4C5 9.26339 5.00078 8.47108 5.05118 7.85424C5.10062 7.24907 5.19279 6.90138 5.32698 6.63803C5.6146 6.07354 6.07354 5.6146 6.63803 5.32698ZM15.7071 10.7071C16.0976 10.3166 16.0976 9.68342 15.7071 9.29289C15.3166 8.90237 14.6834 8.90237 14.2929 9.29289L11 12.5858L9.70711 11.2929C9.31658 10.9024 8.68342 10.9024 8.29289 11.2929C7.90237 11.6834 7.90237 12.3166 8.29289 12.7071L10.2929 14.7071C10.6834 15.0976 11.3166 15.0976 11.7071 14.7071L15.7071 10.7071Z" fill="#194BFB"/>
</svg>
