<svg width="16" height="16" viewBox="0 0 16 16" fill="none" xmlns="http://www.w3.org/2000/svg">
<path fill-rule="evenodd" clip-rule="evenodd" d="M5.33333 0.666016C4.96514 0.666016 4.66667 0.964492 4.66667 1.33268V2.0225C2.61201 2.21235 1.33333 3.5597 1.33333 5.69066V11.5859C1.33333 13.9183 2.82672 15.3327 5.18064 15.3327H10.8193C13.1755 15.3327 14.6667 13.9414 14.6667 11.6352V5.69066C14.6733 3.55704 13.3959 2.20918 11.3333 2.02184V1.33268C11.3333 0.964492 11.0349 0.666016 10.6667 0.666016C10.2985 0.666016 10 0.964492 10 1.33268V1.99935H6V1.33268C6 0.964492 5.70152 0.666016 5.33333 0.666016ZM4.66667 3.36226V3.99935C4.66667 4.36754 4.96514 4.66602 5.33333 4.66602C5.70152 4.66602 6 4.36754 6 3.99935V3.33268H10V3.99935C10 4.36754 10.2985 4.66602 10.6667 4.66602C11.0349 4.66602 11.3333 4.36754 11.3333 3.99935V3.36132C12.6463 3.51765 13.3377 4.31172 13.3334 5.68858V5.99935C13.3333 5.99935 13.3333 5.99935 13.3333 5.99935H2.66667V5.69066C2.66667 4.31675 3.36014 3.52106 4.66667 3.36226ZM2.66667 7.33268L2.66667 11.586C2.66667 13.1653 3.54738 13.9993 5.18064 13.9993H10.8193C12.459 13.9993 13.3334 13.1836 13.3334 11.6352L13.3334 7.33268C13.3333 7.33268 13.3333 7.33268 13.3333 7.33268H2.66667Z" fill="#040415"/>
</svg>
