<svg width="24" height="24" viewBox="0 0 24 24" fill="none" xmlns="http://www.w3.org/2000/svg">
<g clip-path="url(#clip0_2750_13372)">
<path d="M23.25 19.5H17.25V15C17.25 14.8011 17.171 14.6103 17.0303 14.4697C16.8897 14.329 16.6989 14.25 16.5 14.25H7.5C7.30109 14.25 7.11032 14.329 6.96967 14.4697C6.82902 14.6103 6.75 14.8011 6.75 15V17.25H0.75C0.551088 17.25 0.360322 17.329 0.21967 17.4697C0.0790176 17.6103 0 17.8011 0 18L0 22.5C0 22.6989 0.0790176 22.8897 0.21967 23.0303C0.360322 23.171 0.551088 23.25 0.75 23.25H23.25C23.4489 23.25 23.6397 23.171 23.7803 23.0303C23.921 22.8897 24 22.6989 24 22.5V20.25C24 20.0511 23.921 19.8603 23.7803 19.7197C23.6397 19.579 23.4489 19.5 23.25 19.5Z" fill="white"/>
<path d="M8.25 6H8.568C8.80994 6.54866 9.17962 7.03149 9.64619 7.40816C10.1128 7.78483 10.6627 8.04442 11.25 8.16525V8.25C11.25 8.84674 11.0129 9.41903 10.591 9.84099C10.169 10.2629 9.59674 10.5 9 10.5C8.80109 10.5 8.61032 10.579 8.46967 10.7197C8.32902 10.8603 8.25 11.0511 8.25 11.25C8.25 11.4489 8.32902 11.6397 8.46967 11.7803C8.61032 11.921 8.80109 12 9 12H15C15.1989 12 15.3897 11.921 15.5303 11.7803C15.671 11.6397 15.75 11.4489 15.75 11.25C15.75 11.0511 15.671 10.8603 15.5303 10.7197C15.3897 10.579 15.1989 10.5 15 10.5C14.4033 10.5 13.831 10.2629 13.409 9.84099C12.9871 9.41903 12.75 8.84674 12.75 8.25V8.16525C13.3373 8.04442 13.8872 7.78483 14.3538 7.40816C14.8204 7.03149 15.1901 6.54866 15.432 6H15.75C16.5456 6 17.3087 5.68393 17.8713 5.12132C18.4339 4.55871 18.75 3.79565 18.75 3V0.75C18.75 0.551088 18.671 0.360322 18.5303 0.21967C18.3897 0.0790176 18.1989 0 18 0L6 0C5.80109 0 5.61032 0.0790176 5.46967 0.21967C5.32902 0.360322 5.25 0.551088 5.25 0.75V3C5.25 3.79565 5.56607 4.55871 6.12868 5.12132C6.69129 5.68393 7.45435 6 8.25 6ZM15.75 1.5H17.25V3C17.25 3.39782 17.092 3.77936 16.8107 4.06066C16.5294 4.34196 16.1478 4.5 15.75 4.5V1.5ZM6.75 1.5H8.25V4.5C7.85218 4.5 7.47064 4.34196 7.18934 4.06066C6.90804 3.77936 6.75 3.39782 6.75 3V1.5Z" fill="white"/>
</g>
<defs>
<clipPath id="clip0_2750_13372">
<rect width="24" height="24" fill="white"/>
</clipPath>
</defs>
</svg>
