<svg width="20" height="20" viewBox="0 0 20 20" fill="none" xmlns="http://www.w3.org/2000/svg">
<path d="M8.33333 11.6676C8.60489 11.9448 8.92904 12.165 9.28677 12.3153C9.6445 12.4656 10.0286 12.5431 10.4167 12.5431C10.8047 12.5431 11.1888 12.4656 11.5466 12.3153C11.9043 12.165 12.2284 11.9448 12.5 11.6676L15.8333 8.3343C16.3859 7.78176 16.6963 7.03237 16.6963 6.25097C16.6963 5.46956 16.3859 4.72017 15.8333 4.16763C15.2808 3.6151 14.5314 3.30469 13.75 3.30469C12.9686 3.30469 12.2192 3.6151 11.6667 4.16763L11.25 4.5843" stroke="#212121" stroke-width="1.5" stroke-linecap="round" stroke-linejoin="round"/>
<path d="M11.6667 8.33441C11.3951 8.05724 11.071 7.83705 10.7132 7.68673C10.3555 7.53641 9.97136 7.45898 9.58333 7.45898C9.1953 7.45898 8.81117 7.53641 8.45344 7.68673C8.0957 7.83705 7.77156 8.05724 7.5 8.33441L4.16666 11.6677C3.61413 12.2203 3.30372 12.9697 3.30372 13.7511C3.30372 14.5325 3.61413 15.2819 4.16666 15.8344C4.7192 16.3869 5.46859 16.6974 6.25 16.6974C7.0314 16.6974 7.7808 16.3869 8.33333 15.8344L8.75 15.4177" stroke="#212121" stroke-width="1.5" stroke-linecap="round" stroke-linejoin="round"/>
</svg>
