<svg width="24" height="24" viewBox="0 0 24 24" fill="none" xmlns="http://www.w3.org/2000/svg">
<path fill-rule="evenodd" clip-rule="evenodd" d="M6.69681 2C6.30705 2 5.91947 2.05934 5.5456 2.17608L5.27853 2.25948C3.65249 2.76721 2.44475 4.21619 2.13187 5.99178C1.95631 6.98813 1.95631 8.01188 2.13187 9.00821C2.14325 9.07283 2.15583 9.13701 2.16956 9.20074L2.2007 9.35925C3.51555 15.6888 8.5095 20.6209 14.8727 21.8459C14.9123 21.8538 14.952 21.8613 14.9919 21.8683C15.9884 22.0439 17.012 22.0439 18.0084 21.8683C19.7841 21.5554 21.233 20.3477 21.7407 18.7216L21.8241 18.4546C21.9409 18.0806 22.0002 17.693 22.0002 17.3034C22.0002 15.4559 20.3941 14 18.4591 14H14.5413C12.6063 14 11.0002 15.4559 11.0002 17.3034C11.0002 17.678 11.055 18.0506 11.1629 18.411C8.81294 17.124 6.87617 15.1873 5.5892 12.8373C5.94981 12.9452 6.32234 13 6.69681 13C8.54431 13 10.0002 11.3939 10.0002 9.45894V5.54106C10.0002 3.60611 8.54432 2 6.69681 2ZM4.1168 8.74179C4.32362 9.7616 5.00557 10.5601 5.87472 10.8315L6.14147 10.9148C6.32299 10.9714 6.5097 11 6.69681 11C7.39354 11 8.0002 10.3307 8.0002 9.45894V5.54106C8.0002 4.66925 7.39355 4 6.69681 4C6.50961 4 6.32299 4.02857 6.14173 4.08517L5.87466 4.16857C4.98279 4.44705 4.288 5.28064 4.10152 6.33885C3.96667 7.10416 3.96642 7.89149 4.10077 8.65687C4.10603 8.68521 4.11137 8.71351 4.1168 8.74179ZM15.206 19.8723L15.3456 19.8998C16.1103 20.0337 16.8968 20.0334 17.6613 19.8987C18.7196 19.7122 19.5532 19.0174 19.8316 18.1255L19.915 17.8586C19.9716 17.6772 20.0002 17.4905 20.0002 17.3034C20.0002 16.6067 19.3309 16 18.4591 16H14.5413C13.6695 16 13.0002 16.6067 13.0002 17.3034C13.0002 17.4905 13.0288 17.6772 13.0853 17.8584L13.1687 18.1256C13.4354 18.9797 14.2113 19.6531 15.206 19.8723Z" fill="#091B3D"/>
</svg>
