<svg width="24" height="24" viewBox="0 0 24 24" fill="none" xmlns="http://www.w3.org/2000/svg">
<g clip-path="url(#clip0_2750_13381)">
<path d="M24 12.0003L18.75 7.50033V11.2503H15.5782C15.4686 9.15534 14.9309 7.10503 13.9983 5.22588C13.0657 3.34672 11.7579 1.67857 10.1558 0.32433C10.0029 0.196926 9.80567 0.135466 9.60749 0.15347C9.40931 0.171473 9.2264 0.267466 9.099 0.42033C8.9716 0.573194 8.91014 0.770408 8.92814 0.968587C8.94614 1.16677 9.04214 1.34968 9.195 1.47708C9.71292 1.91091 10.1968 2.3838 10.6425 2.89158L4.13325 11.2503H0V12.7503H4.13325L10.6425 21.1091C10.1968 21.6169 9.71292 22.0897 9.195 22.5236C9.11931 22.5867 9.05678 22.664 9.011 22.7513C8.96521 22.8385 8.93705 22.9339 8.92814 23.0321C8.91014 23.2303 8.9716 23.4275 9.099 23.5803C9.2264 23.7332 9.40931 23.8292 9.60749 23.8472C9.80567 23.8652 10.0029 23.8037 10.1558 23.6763C11.7579 22.3221 13.0657 20.6539 13.9983 18.7748C14.9309 16.8956 15.4686 14.8453 15.5782 12.7503H18.75V16.5003L24 12.0003ZM11.5972 19.8941L6.0345 12.7503H12.75V11.2503H6.0345L11.5972 4.10658C13.2258 6.41668 14.0999 9.17392 14.0999 12.0003C14.0999 14.8267 13.2258 17.584 11.5972 19.8941Z" fill="white"/>
</g>
<defs>
<clipPath id="clip0_2750_13381">
<rect width="24" height="24" fill="white"/>
</clipPath>
</defs>
</svg>
