<svg width="20" height="20" viewBox="0 0 20 20" fill="none" xmlns="http://www.w3.org/2000/svg">
<path d="M15.0583 7.09056L7.92498 3.52389C3.13331 1.12389 1.16664 3.09056 3.56664 7.88223L4.29164 9.33222C4.49998 9.75723 4.49998 10.2489 4.29164 10.6739L3.56664 12.1156C1.16664 16.9072 3.12498 18.8739 7.92498 16.4739L15.0583 12.9072C18.2583 11.3072 18.2583 8.69056 15.0583 7.09056ZM12.3666 10.6239H7.86664C7.52498 10.6239 7.24164 10.3406 7.24164 9.99889C7.24164 9.65723 7.52498 9.37389 7.86664 9.37389H12.3666C12.7083 9.37389 12.9916 9.65723 12.9916 9.99889C12.9916 10.3406 12.7083 10.6239 12.3666 10.6239Z" fill="white"/>
</svg>
