<svg width="24" height="24" viewBox="0 0 24 24" fill="none" xmlns="http://www.w3.org/2000/svg">
<path fill-rule="evenodd" clip-rule="evenodd" d="M13 4C13 3.44772 12.5523 3 12 3C11.4477 3 11 3.44772 11 4V5C11 5.55228 11.4477 6 12 6C12.5523 6 13 5.55228 13 5V4ZM8.20711 5.35508C7.81659 4.96455 7.18343 4.96455 6.7929 5.35507C6.40237 5.74559 6.40237 6.37875 6.79289 6.76928L7.7307 7.7071C8.12122 8.09763 8.75438 8.09763 9.14491 7.70711C9.53544 7.31659 9.53544 6.68342 9.14492 6.2929L8.20711 5.35508ZM17.2071 6.7693C17.5976 6.37878 17.5976 5.74561 17.2071 5.35509C16.8166 4.96456 16.1834 4.96456 15.7929 5.35509L14.8551 6.29289C14.4645 6.68342 14.4645 7.31658 14.8551 7.70711C15.2456 8.09763 15.8788 8.09763 16.2693 7.70711L17.2071 6.7693ZM10.2222 11.475C10.2222 11.1556 10.3926 10.7958 10.7561 10.4868C11.1214 10.1763 11.5911 10 12 10C12.4089 10 12.8786 10.1763 13.2439 10.4868C13.6074 10.7958 13.7778 11.1556 13.7778 11.475V11.4787C13.2035 11.3615 12.6088 11.3 12 11.3C11.3912 11.3 10.7965 11.3615 10.2222 11.4787V11.475ZM15.7778 11.475V12.1451C18.4438 13.4069 20.3702 15.9631 20.7205 19H22C22.5523 19 23 19.4477 23 20C23 20.5523 22.5523 21 22 21H2C1.44772 21 1 20.5523 1 20C1 19.4477 1.44772 19 2 19H3.27951C3.6298 15.9631 5.55624 13.4069 8.22222 12.1451V11.475C8.22222 10.4275 8.77045 9.54979 9.46071 8.963C10.1492 8.37776 11.0683 8 12 8C12.9317 8 13.8508 8.37776 14.5393 8.963C15.2296 9.54979 15.7778 10.4275 15.7778 11.475ZM12 13.3C15.4074 13.3 18.2148 15.7807 18.7027 19H5.29731C5.78524 15.7807 8.59265 13.3 12 13.3Z" fill="#091B3D"/>
</svg>
