<svg width="20" height="20" viewBox="0 0 20 20" fill="none" xmlns="http://www.w3.org/2000/svg">
<path d="M12.5 6.66797H12.5083" stroke="#212121" stroke-width="2" stroke-linecap="round" stroke-linejoin="round"/>
<path d="M14.1667 3.33398H5.83333C4.45262 3.33398 3.33333 4.45327 3.33333 5.83398V14.1673C3.33333 15.548 4.45262 16.6673 5.83333 16.6673H14.1667C15.5474 16.6673 16.6667 15.548 16.6667 14.1673V5.83398C16.6667 4.45327 15.5474 3.33398 14.1667 3.33398Z" stroke="#212121" stroke-width="1.5" stroke-linecap="round" stroke-linejoin="round"/>
<path d="M3.33333 12.5009L6.66666 9.1676C7.04671 8.8019 7.47782 8.60938 7.91666 8.60938C8.3555 8.60938 8.78661 8.8019 9.16666 9.1676L13.3333 13.3343" stroke="#212121" stroke-width="1.5" stroke-linecap="round" stroke-linejoin="round"/>
<path d="M11.6667 11.667L12.5 10.8336C12.88 10.4679 13.3111 10.2754 13.75 10.2754C14.1888 10.2754 14.6199 10.4679 15 10.8336L16.6667 12.5003" stroke="#212121" stroke-width="1.5" stroke-linecap="round" stroke-linejoin="round"/>
</svg>
