<svg width="40" height="40" viewBox="0 0 40 40" fill="none" xmlns="http://www.w3.org/2000/svg">
<path fill-rule="evenodd" clip-rule="evenodd" d="M20 11.668C20.8547 11.668 21.5591 12.3114 21.6554 13.1403L21.6666 13.3346V18.3346H26.6666C27.5871 18.3346 28.3333 19.0808 28.3333 20.0013C28.3333 20.856 27.6899 21.5605 26.861 21.6568L26.6666 21.668H21.6666V26.668C21.6666 27.5884 20.9204 28.3346 20 28.3346C19.1452 28.3346 18.4408 27.6912 18.3445 26.8623L18.3333 26.668V21.668H13.3333C12.4128 21.668 11.6666 20.9218 11.6666 20.0013C11.6666 19.1466 12.31 18.4421 13.1389 18.3458L13.3333 18.3346H18.3333V13.3346C18.3333 12.4142 19.0795 11.668 20 11.668Z" fill="white"/>
</svg>
