<svg width="24" height="24" viewBox="0 0 24 24" fill="none" xmlns="http://www.w3.org/2000/svg">
<path fill-rule="evenodd" clip-rule="evenodd" d="M13.8992 4.31737C11.9896 3.89421 10.0104 3.89421 8.10077 4.31737L7.6469 4.41794C5.29302 4.93952 3.43713 6.74911 2.85592 9.08974C2.38136 11.0009 2.38136 12.9991 2.85592 14.9103C3.43713 17.2509 5.29302 19.0605 7.64689 19.5821L8.10077 19.6826C10.0104 20.1058 11.9896 20.1058 13.8992 19.6826L14.3531 19.5821C16.707 19.0605 18.5629 17.2509 19.1441 14.9103C19.6186 12.9991 19.6186 11.0009 19.1441 9.08975C18.5629 6.74911 16.707 4.93952 14.3531 4.41794L13.8992 4.31737ZM7.66809 2.36473C9.8628 1.87842 12.1372 1.87842 14.3319 2.36473L14.7858 2.4653C17.881 3.15115 20.321 5.53056 21.0851 8.60776C21.6383 10.8354 21.6383 13.1646 21.0851 15.3922C20.321 18.4694 17.881 20.8488 14.7858 21.5347L14.3319 21.6353C12.1372 22.1216 9.8628 22.1216 7.66809 21.6353L7.21422 21.5347C4.11901 20.8488 1.67897 18.4694 0.91487 15.3922C0.36171 13.1646 0.36171 10.8354 0.91487 8.60775C1.67897 5.53056 4.11901 3.15115 7.21422 2.4653L7.66809 2.36473ZM6.33745 9.7688C6.65851 9.31942 7.28307 9.21539 7.73245 9.53645L10.303 11.3729C10.7199 11.6708 11.28 11.6708 11.697 11.3729L14.2675 9.53645C14.7169 9.21539 15.3415 9.31942 15.6625 9.7688C15.9836 10.2182 15.8796 10.8427 15.4302 11.1638L12.8597 13.0003C11.7472 13.7951 10.2528 13.7951 9.1403 13.0003L6.5698 11.1638C6.12042 10.8427 6.0164 10.2182 6.33745 9.7688Z" fill="#091B3D"/>
</svg>
