<svg width="24" height="24" viewBox="0 0 24 24" fill="none" xmlns="http://www.w3.org/2000/svg">
<path fill-rule="evenodd" clip-rule="evenodd" d="M6.8971 3.17789C4.79753 4.20225 3.37586 6.23195 3.13656 8.54864L3.10053 8.89749C2.97762 10.0874 2.96739 11.2862 3.06998 12.478L3.19079 13.8047L3.24373 14.19L3.25624 14.2631C3.58492 16.1389 4.53568 17.847 5.95112 19.1174L6.32049 19.4301L6.61395 19.6521L8.05153 20.6511L8.42298 20.9016L8.61943 21.0293L8.86392 21.1784L9.00899 21.2592L9.22952 21.3705C10.9803 22.2099 13.0197 22.2099 14.7705 21.3704L14.9886 21.2605L15.2111 21.1342L15.4738 20.9693L15.9485 20.6511L17.3498 19.6783L17.6228 19.4751L17.7944 19.3368C19.3503 18.0474 20.3958 16.2492 20.7438 14.2631L20.7657 14.1301L20.8043 13.8432L20.875 13.1152L20.93 12.4781C21.0326 11.2863 21.0224 10.0875 20.8995 8.89752L20.8634 8.54846C20.6242 6.232 19.2025 4.20227 17.1029 3.17789C13.9911 1.65972 10.3667 1.60911 7.2208 3.02608L6.8971 3.17789ZM16.2259 4.97537C17.7054 5.69719 18.7058 7.12548 18.874 8.75411L18.9101 9.10317C19.02 10.1677 19.0292 11.2403 18.9374 12.3064L18.8331 13.4729L18.8045 13.7176L18.7738 13.9179C18.5078 15.4356 17.7085 16.8104 16.5181 17.7971L16.3348 17.9422L16.0717 18.133L14.8383 18.9873L14.4991 19.2164L14.1869 19.4153L14.0129 19.5134L13.906 19.5669C12.777 20.1083 11.4729 20.1421 10.3205 19.6677L10.0921 19.5661L9.93091 19.4832L9.74537 19.374L9.50056 19.2161L8.8659 18.7841L7.87964 18.0986L7.56596 17.8652L7.482 17.7971C6.36586 16.8721 5.59361 15.606 5.2823 14.2007L5.21682 13.8627L5.17452 13.5456L5.09297 12.6592L5.06261 12.3064C4.97082 11.2402 4.97997 10.1676 5.08994 9.10298L5.12597 8.75413C5.29421 7.12545 6.29462 5.69717 7.77407 4.97537C10.4396 3.67488 13.5603 3.67488 16.2259 4.97537ZM15.4323 9.26895C15.0286 8.89211 14.3958 8.91393 14.0189 9.31768L11.225 12.31L9.9571 11.0429L9.8629 10.9597C9.4706 10.6547 8.90337 10.6824 8.54289 11.0429C8.15237 11.4334 8.15237 12.0666 8.54289 12.4571L10.5429 14.4571L10.6395 14.5421C11.0417 14.8531 11.6247 14.8141 11.9811 14.4323L15.4811 10.6823L15.5609 10.5853C15.8523 10.1827 15.805 9.61679 15.4323 9.26895Z" fill="#0CAF60"/>
</svg>
