<svg width="32" height="32" viewBox="0 0 32 32" fill="none" xmlns="http://www.w3.org/2000/svg">
<path fill-rule="evenodd" clip-rule="evenodd" d="M5.33333 16.0013C5.33333 10.1103 10.109 5.33464 16 5.33464C21.8911 5.33464 26.6667 10.1103 26.6667 16.0013C26.6667 21.8924 21.8911 26.668 16 26.668C10.109 26.668 5.33333 21.8924 5.33333 16.0013ZM16 2.66797C8.6362 2.66797 2.66667 8.6375 2.66667 16.0013C2.66667 23.365 8.6362 29.3346 16 29.3346C23.3637 29.3346 29.3333 23.365 29.3333 16.0013C29.3333 8.6375 23.3637 2.66797 16 2.66797ZM20.9428 14.2774C21.4635 13.7568 21.4635 12.9125 20.9428 12.3918C20.4221 11.8711 19.5779 11.8711 19.0572 12.3918L14.6667 16.7824L12.9428 15.0585C12.4221 14.5378 11.5779 14.5378 11.0572 15.0585C10.5365 15.5792 10.5365 16.4234 11.0572 16.9441L13.7239 19.6108C14.2445 20.1314 15.0888 20.1314 15.6095 19.6108L20.9428 14.2774Z" fill="white"/>
</svg>
