<svg width="91" height="51" viewBox="0 0 91 51" fill="none" xmlns="http://www.w3.org/2000/svg">
<path d="M91 5.27932V45.3371C91 46.7377 90.4513 48.0811 89.4741 49.0729C88.497 50.0646 87.1712 50.6238 85.7873 50.6279H5.21642C4.53044 50.6279 3.85119 50.491 3.21757 50.2249C2.58394 49.9589 2.00839 49.569 1.52385 49.0776C1.03931 48.5861 0.65531 48.0028 0.393829 47.3609C0.132347 46.7191 -0.00147894 46.0314 1.23272e-05 45.3371V5.27932C1.23272e-05 3.87915 0.549597 2.53634 1.52786 1.54628C2.50613 0.556211 3.83295 0 5.21642 0H85.7873C87.1695 0.00303518 88.4942 0.560343 89.4712 1.54986C90.4482 2.53938 90.998 3.88044 91 5.27932Z" fill="white"/>
</svg>
