<svg width="20" height="20" viewBox="0 0 20 20" fill="none" xmlns="http://www.w3.org/2000/svg">
<path fill-rule="evenodd" clip-rule="evenodd" d="M14.8692 4.69754C14.9026 4.75582 14.9609 4.79745 15.0359 4.79745C17.0363 4.79745 18.67 6.4293 18.67 8.42748V13.373C18.67 15.3712 17.0363 17.003 15.0359 17.003H5.63406C3.62533 17.003 2 15.3712 2 13.373V8.42748C2 6.4293 3.62533 4.79745 5.63406 4.79745C5.70074 4.79745 5.76742 4.76415 5.79243 4.69754L5.84244 4.59763C5.87117 4.53715 5.90067 4.47502 5.93061 4.41195C6.14384 3.96283 6.37973 3.46595 6.52591 3.17393C6.90932 2.42461 7.55944 2.00833 8.36794 2H12.2937C13.1022 2.00833 13.7607 2.42461 14.1441 3.17393C14.2754 3.43619 14.4754 3.85864 14.6681 4.2658C14.7079 4.34983 14.7474 4.4332 14.7859 4.51438L14.8692 4.69754ZM14.2608 7.89468C14.2608 8.31096 14.5942 8.64399 15.0109 8.64399C15.4277 8.64399 15.7694 8.31096 15.7694 7.89468C15.7694 7.47839 15.4277 7.13703 15.0109 7.13703C14.5942 7.13703 14.2608 7.47839 14.2608 7.89468ZM8.89304 9.18514C9.28478 8.79383 9.79322 8.58569 10.335 8.58569C10.8768 8.58569 11.3852 8.79383 11.7686 9.17682C12.152 9.5598 12.3604 10.0677 12.3604 10.6088C12.3521 11.7245 11.4519 12.632 10.335 12.632C9.79322 12.632 9.28478 12.4239 8.90137 12.0409C8.51796 11.6579 8.30959 11.15 8.30959 10.6088V10.6005C8.30125 10.076 8.50963 9.56813 8.89304 9.18514ZM12.6438 12.9233C12.052 13.5145 11.2352 13.8808 10.335 13.8808C9.45983 13.8808 8.643 13.5394 8.01787 12.9233C7.40108 12.2989 7.05935 11.483 7.05935 10.6088C7.05101 9.7429 7.39275 8.92698 8.00954 8.30255C8.63466 7.67812 9.45983 7.33676 10.335 7.33676C11.2102 7.33676 12.0353 7.67812 12.6521 8.29422C13.2689 8.91865 13.6107 9.7429 13.6107 10.6088C13.6023 11.5163 13.2356 12.3322 12.6438 12.9233Z" fill="white"/>
</svg>
