<svg width="20" height="20" viewBox="0 0 20 20" fill="none" xmlns="http://www.w3.org/2000/svg">
<path d="M12.5 6.66406H12.5083" stroke="#A0AEC0" stroke-width="2" stroke-linecap="round" stroke-linejoin="round"/>
<path d="M14.1667 3.33203H5.83334C4.45263 3.33203 3.33334 4.45132 3.33334 5.83203V14.1654C3.33334 15.5461 4.45263 16.6654 5.83334 16.6654H14.1667C15.5474 16.6654 16.6667 15.5461 16.6667 14.1654V5.83203C16.6667 4.45132 15.5474 3.33203 14.1667 3.33203Z" stroke="#A0AEC0" stroke-width="1.5" stroke-linecap="round" stroke-linejoin="round"/>
<path d="M3.33334 12.497L6.66668 9.1637C7.04672 8.798 7.47784 8.60547 7.91668 8.60547C8.35552 8.60547 8.78663 8.798 9.16668 9.1637L13.3333 13.3304" stroke="#A0AEC0" stroke-width="1.5" stroke-linecap="round" stroke-linejoin="round"/>
<path d="M11.6667 11.665L12.5 10.8317C12.8801 10.466 13.3112 10.2734 13.75 10.2734C14.1889 10.2734 14.62 10.466 15 10.8317L16.6667 12.4983" stroke="#A0AEC0" stroke-width="1.5" stroke-linecap="round" stroke-linejoin="round"/>
</svg>
