<svg width="30" height="24" viewBox="0 0 30 24" fill="none" xmlns="http://www.w3.org/2000/svg">
<g clip-path="url(#clip0_2502_71882)">
<path d="M23.6154 0.773438H6.38467C4.46159 0.773438 3.80775 1.0057 3.11544 1.35408C2.34621 1.74118 1.76929 2.36053 1.38467 3.09602C1.00006 3.8315 0.769287 4.48957 0.769287 6.42505V17.6121C0.769287 19.5089 1.00006 20.2057 1.34621 20.9025C1.73083 21.6767 2.34621 22.2573 3.07698 22.6444C3.76929 23.0315 4.46159 23.225 6.34621 23.225H23.6154C25.5001 23.225 26.1924 22.9928 26.8847 22.6444C27.6539 22.2573 28.2308 21.638 28.6154 20.9025C29.0001 20.2057 29.1924 19.5089 29.1924 17.6121V6.42505C29.1924 4.52828 28.9616 3.8315 28.6154 3.13473C28.2308 2.36053 27.6154 1.77989 26.8847 1.39279C26.1924 1.0057 25.5385 0.773438 23.6154 0.773438Z" fill="#EA403F"/>
<path d="M14.8077 14.9795L13.3077 15.7924C12.8462 16.0247 12.2693 15.8699 12.0385 15.4053C11.9231 15.2118 11.9231 15.0182 11.9616 14.786L12.2693 13.0828C12.3077 12.9666 12.2308 12.8118 12.1539 12.7344L10.9231 11.5344C10.5385 11.186 10.5385 10.5666 10.9231 10.1795C11.077 10.0247 11.2693 9.94728 11.4616 9.90857L13.1539 9.67631C13.2693 9.67631 13.3846 9.56018 13.4616 9.48277L14.2308 7.93438C14.4616 7.46986 15.0385 7.27631 15.5 7.50857C15.6923 7.58599 15.8462 7.74083 15.9231 7.93438L16.6923 9.48277C16.7308 9.59889 16.8462 9.67631 17 9.67631L18.6923 9.90857C19.1923 9.98599 19.577 10.4505 19.5 10.9924C19.4616 11.186 19.3846 11.3795 19.2308 11.5344L17.8846 12.7731C17.8077 12.8505 17.7693 13.0053 17.7693 13.1215L18.077 14.8247C18.1539 15.3279 17.8077 15.8312 17.3077 15.9086C17.1154 15.9473 16.8846 15.9086 16.6923 15.8312L15.1923 15.0182C15.077 14.9408 14.9231 14.9408 14.8077 14.9795Z" fill="#FFFE4E"/>
</g>
<defs>
<clipPath id="clip0_2502_71882">
<rect width="30" height="24" fill="white"/>
</clipPath>
</defs>
</svg>
