<svg width="24" height="24" viewBox="0 0 24 24" fill="none" xmlns="http://www.w3.org/2000/svg">
<path fill-rule="evenodd" clip-rule="evenodd" d="M12.7262 2.29138C15.2896 1.561 18.0287 2.21874 19.9054 4.09552C21.7822 5.97231 22.4399 8.71129 21.7096 11.2747C21.5582 11.8059 21.005 12.1138 20.4738 11.9624C19.9427 11.8111 19.6348 11.2578 19.7861 10.7267C20.3213 8.84829 19.8446 6.86311 18.4912 5.50973C17.1379 4.15636 15.1526 3.67963 13.2743 4.21483C12.7431 4.36617 12.1899 4.05827 12.0385 3.52713C11.8872 2.99598 12.1951 2.44272 12.7262 2.29138ZM14.7418 4.98405C15.8698 4.75934 17.0912 5.15501 17.9686 6.03244C18.846 6.90989 19.2416 8.13113 19.0169 9.2592C18.909 9.80084 18.3824 10.1524 17.8407 10.0445C17.3378 9.94433 16.9987 9.48314 17.0392 8.9841L17.0554 8.86841C17.1467 8.41005 16.969 7.86128 16.5543 7.44663C16.1812 7.07348 15.6993 6.89214 15.2725 6.92616L15.1325 6.94551C14.5909 7.0534 14.0643 6.70178 13.9564 6.16014C13.8485 5.61849 14.2001 5.09194 14.7418 4.98405ZM18.4591 14.0007H14.5413C12.6064 14.0007 11.0002 15.4566 11.0002 17.3041C11.0002 17.6787 11.0551 18.0513 11.163 18.4117C8.81299 17.1247 6.87621 15.188 5.58924 12.838C5.94985 12.9459 6.32238 13.0007 6.69685 13.0007C8.54436 13.0007 10.0002 11.3946 10.0002 9.45965V5.54177C10.0002 3.60681 8.54436 2.00071 6.69685 2.00071C6.30709 2.00071 5.91951 2.06005 5.54565 2.17679L5.27857 2.26019C3.65253 2.76791 2.4448 4.2169 2.13191 5.99249C1.95635 6.98884 1.95635 8.01259 2.13191 9.00892C2.1433 9.07354 2.15587 9.13772 2.1696 9.20144L2.20075 9.35996C3.51558 15.6894 8.50943 20.6215 14.8725 21.8465C14.9122 21.8545 14.952 21.862 14.992 21.869C15.9884 22.0446 17.0121 22.0446 18.0084 21.869C19.7841 21.5561 21.2331 20.3484 21.7408 18.7224L21.8242 18.4553C21.9409 18.0813 22.0002 17.6938 22.0002 17.3041C22.0002 15.4566 20.3941 14.0007 18.4591 14.0007ZM4.11685 8.7425C4.11142 8.71422 4.10608 8.68591 4.10082 8.65758C3.96647 7.8922 3.96672 7.10487 4.10157 6.33956C4.28804 5.28135 4.98284 4.44776 5.87471 4.16928L6.14177 4.08588C6.32303 4.02928 6.50966 4.00071 6.69685 4.00071C7.39359 4.00071 8.00024 4.66996 8.00024 5.54177V9.45965C8.00024 10.3314 7.39359 11.0007 6.69685 11.0007C6.50974 11.0007 6.32304 10.9721 6.14152 10.9155L5.87476 10.8322C5.00562 10.5608 4.32367 9.76231 4.11685 8.7425ZM15.206 19.873L15.3457 19.9005C16.1104 20.0345 16.8969 20.0341 17.6614 19.8994C18.7197 19.7129 19.5532 19.0181 19.8317 18.1263L19.915 17.8593C19.9717 17.6779 20.0002 17.4912 20.0002 17.3041C20.0002 16.6074 19.331 16.0007 18.4591 16.0007H14.5413C13.6695 16.0007 13.0002 16.6074 13.0002 17.3041C13.0002 17.4912 13.0288 17.6779 13.0854 17.8592L13.1688 18.1263C13.4355 18.9804 14.2113 19.6538 15.206 19.873Z" fill="#212121"/>
</svg>
