<svg width="24" height="24" viewBox="0 0 24 24" fill="none" xmlns="http://www.w3.org/2000/svg">
<path fill-rule="evenodd" clip-rule="evenodd" d="M12 2C12.5523 2 13 2.44772 13 3V5C13 5.55228 12.5523 6 12 6C11.4477 6 11 5.55228 11 5V3C11 2.44772 11.4477 2 12 2Z" fill="#1A1D1F"/>
<path fill-rule="evenodd" clip-rule="evenodd" d="M12 18C12.5523 18 13 18.4477 13 19V21C13 21.5523 12.5523 22 12 22C11.4477 22 11 21.5523 11 21V19C11 18.4477 11.4477 18 12 18Z" fill="#1A1D1F"/>
<path fill-rule="evenodd" clip-rule="evenodd" d="M4.92893 4.92961C5.31946 4.53909 5.95262 4.53909 6.34314 4.92961L7.75736 6.34383C8.14788 6.73435 8.14788 7.36751 7.75736 7.75804C7.36683 8.14856 6.73367 8.14856 6.34314 7.75804L4.92893 6.34383C4.53841 5.9533 4.53841 5.32014 4.92893 4.92961Z" fill="#1A1D1F"/>
<path fill-rule="evenodd" clip-rule="evenodd" d="M16.2426 16.2421C16.6332 15.8516 17.2663 15.8516 17.6569 16.2421L19.0711 17.6563C19.4616 18.0468 19.4616 18.68 19.0711 19.0705C18.6805 19.4611 18.0474 19.4611 17.6569 19.0705L16.2426 17.6563C15.8521 17.2658 15.8521 16.6326 16.2426 16.2421Z" fill="#1A1D1F"/>
<path fill-rule="evenodd" clip-rule="evenodd" d="M1.99999 12C1.99999 11.4477 2.44771 11 2.99999 11L4.99999 11C5.55228 11 5.99999 11.4477 5.99999 12C5.99999 12.5523 5.55228 13 4.99999 13L2.99999 13C2.44771 13 1.99999 12.5523 1.99999 12Z" fill="#1A1D1F"/>
<path fill-rule="evenodd" clip-rule="evenodd" d="M18 12C18 11.4477 18.4477 11 19 11L21 11C21.5523 11 22 11.4477 22 12C22 12.5523 21.5523 13 21 13L19 13C18.4477 13 18 12.5523 18 12Z" fill="#1A1D1F"/>
<path fill-rule="evenodd" clip-rule="evenodd" d="M4.92893 19.0702C4.53841 18.6797 4.53841 18.0465 4.92893 17.656L6.34315 16.2418C6.73367 15.8513 7.36684 15.8513 7.75736 16.2418C8.14788 16.6323 8.14788 17.2655 7.75736 17.656L6.34315 19.0702C5.95262 19.4608 5.31946 19.4608 4.92893 19.0702Z" fill="#1A1D1F"/>
<path fill-rule="evenodd" clip-rule="evenodd" d="M16.2426 7.75774C15.8521 7.36721 15.8521 6.73405 16.2426 6.34352L17.6569 4.92931C18.0474 4.53879 18.6805 4.53879 19.0711 4.92931C19.4616 5.31983 19.4616 5.953 19.0711 6.34352L17.6569 7.75774C17.2663 8.14826 16.6332 8.14826 16.2426 7.75774Z" fill="#1A1D1F"/>
</svg>
