<svg width="24" height="24" viewBox="0 0 24 24" fill="none" xmlns="http://www.w3.org/2000/svg">
<g clip-path="url(#clip0_2750_13304)">
<path d="M6.75 0.75C6.75 0.551088 6.67098 0.360322 6.53033 0.21967C6.38968 0.0790176 6.19891 0 6 0C5.80109 0 5.61032 0.0790176 5.46967 0.21967C5.32902 0.360322 5.25 0.551088 5.25 0.75V3H6.75V0.75Z" fill="white"/>
<path d="M18.75 0.75C18.75 0.551088 18.671 0.360322 18.5303 0.21967C18.3897 0.0790176 18.1989 0 18 0C17.8011 0 17.6103 0.0790176 17.4697 0.21967C17.329 0.360322 17.25 0.551088 17.25 0.75V3H18.75V0.75Z" fill="white"/>
<path d="M8.25 15.75H3.75V19.5H8.25V15.75Z" fill="white"/>
<path d="M8.25 10.5H3.75V14.25H8.25V10.5Z" fill="white"/>
<path d="M14.25 15.75H9.75V19.5H14.25V15.75Z" fill="white"/>
<path d="M14.25 10.5H9.75V14.25H14.25V10.5Z" fill="white"/>
<path d="M20.25 10.5H15.75V14.25H20.25V10.5Z" fill="white"/>
<path d="M20.25 3.75H3.75C2.95435 3.75 2.19129 4.06607 1.62868 4.62868C1.06607 5.19129 0.75 5.95435 0.75 6.75V20.25C0.75 21.0456 1.06607 21.8087 1.62868 22.3713C2.19129 22.9339 2.95435 23.25 3.75 23.25H20.25C21.0456 23.25 21.8087 22.9339 22.3713 22.3713C22.9339 21.8087 23.25 21.0456 23.25 20.25V6.75C23.25 5.95435 22.9339 5.19129 22.3713 4.62868C21.8087 4.06607 21.0456 3.75 20.25 3.75ZM21.75 20.25C21.75 20.6478 21.592 21.0294 21.3107 21.3107C21.0294 21.592 20.6478 21.75 20.25 21.75H3.75C3.35218 21.75 2.97064 21.592 2.68934 21.3107C2.40804 21.0294 2.25 20.6478 2.25 20.25V8.25H21.75V20.25Z" fill="white"/>
</g>
<defs>
<clipPath id="clip0_2750_13304">
<rect width="24" height="24" fill="white"/>
</clipPath>
</defs>
</svg>
