<svg width="24" height="24" viewBox="0 0 24 24" fill="none" xmlns="http://www.w3.org/2000/svg">
<g clip-path="url(#clip0_2750_13430)">
<path d="M22.5 5.25H3.75C2.92275 5.25 2.25 4.57725 2.25 3.75C2.25 2.92275 2.92275 2.25 3.75 2.25H17.25V3.75H18.75V1.5C18.75 1.086 18.414 0.75 18 0.75H3.75C2.0955 0.75 0.75 2.0955 0.75 3.75V19.5C0.75 21.5677 2.43225 23.25 4.5 23.25H22.5C22.914 23.25 23.25 22.914 23.25 22.5V6C23.25 5.586 22.914 5.25 22.5 5.25ZM18.75 15.75C17.9212 15.75 17.25 15.0787 17.25 14.25C17.25 13.4213 17.9212 12.75 18.75 12.75C19.5788 12.75 20.25 13.4213 20.25 14.25C20.25 15.0787 19.5788 15.75 18.75 15.75Z" fill="white"/>
</g>
<defs>
<clipPath id="clip0_2750_13430">
<rect width="24" height="24" fill="white"/>
</clipPath>
</defs>
</svg>
