<svg width="32" height="32" viewBox="0 0 32 32" fill="none" xmlns="http://www.w3.org/2000/svg">
<path fill-rule="evenodd" clip-rule="evenodd" d="M17.485 2.66801C18.3316 2.66761 18.9712 2.66731 19.5881 2.81541C20.1324 2.94606 20.6527 3.16156 21.1299 3.45397C21.6708 3.78545 22.1229 4.23798 22.7212 4.83686L22.7213 4.83701L24.4977 6.61342C25.0967 7.21182 25.5492 7.66396 25.8808 8.20492C26.1732 8.6821 26.3887 9.20234 26.5193 9.74653C26.6674 10.363 26.6671 11.0024 26.6667 11.8482V11.8498V21.6565C26.6667 22.7297 26.6667 23.6156 26.6077 24.3372C26.5465 25.0866 26.4151 25.7756 26.0853 26.4226C25.574 27.4262 24.7581 28.2421 23.7547 28.7534C23.1075 29.0832 22.4185 29.2145 21.6691 29.2758C20.9475 29.3348 20.0617 29.3348 18.9884 29.3348H13.0116C11.9383 29.3348 11.0525 29.3348 10.3309 29.2758C9.58144 29.2145 8.89249 29.0832 8.24539 28.7534C7.24185 28.2421 6.42596 27.4262 5.91464 26.4226C5.58491 25.7756 5.45349 25.0866 5.39225 24.3372C5.33331 23.6156 5.33332 22.7298 5.33333 21.6566V21.6565V10.3463V10.3462C5.33332 9.27293 5.33331 8.38718 5.39225 7.66562C5.45349 6.91616 5.58491 6.22722 5.91464 5.5801C6.42596 4.57657 7.24185 3.76068 8.24539 3.24936C8.89249 2.91964 9.58144 2.78821 10.3309 2.72698C11.0525 2.66803 11.9382 2.66804 13.0115 2.66805L13.0116 2.66805L17.4849 2.66801L17.485 2.66801ZM13.0667 5.33472H17.3333V8.00138C17.3333 10.2105 19.1241 12.0014 21.3333 12.0014H24V21.6014C24 22.7434 23.9989 23.5198 23.9499 24.12C23.9021 24.7045 23.8156 25.0034 23.7093 25.212C23.4537 25.7138 23.0457 26.1217 22.544 26.3774C22.3355 26.4837 22.0365 26.5702 21.452 26.618C20.8519 26.667 20.0755 26.6681 18.9333 26.6681H13.0667C11.9246 26.6681 11.1482 26.667 10.5481 26.618C9.96349 26.5702 9.66456 26.4837 9.45603 26.3774C8.95427 26.1217 8.54631 25.7138 8.29065 25.212C8.1844 25.0034 8.09783 24.7045 8.05007 24.12C8.00104 23.5198 8 22.7434 8 21.6014V10.4014C8 9.25928 8.00104 8.48289 8.05007 7.88277C8.09783 7.29822 8.1844 6.99928 8.29065 6.79074C8.54631 6.28898 8.95427 5.88104 9.45603 5.62537C9.66456 5.51912 9.96349 5.43254 10.5481 5.38478C11.1482 5.33576 11.9246 5.33472 13.0667 5.33472ZM22.516 8.40301C22.9972 8.88418 23.2531 9.14525 23.4133 9.33472H21.3333C20.5969 9.33472 20 8.73777 20 8.00138V5.92142C20.1895 6.08165 20.4505 6.33754 20.9317 6.81872L22.516 8.40301ZM20.9428 16.9441C21.4635 16.4235 21.4635 15.5792 20.9428 15.0585C20.4221 14.5379 19.5779 14.5379 19.0572 15.0585L14.6667 19.4491L12.9428 17.7252C12.4221 17.2045 11.5779 17.2045 11.0572 17.7252C10.5365 18.2459 10.5365 19.0901 11.0572 19.6108L13.7239 22.2775C14.2445 22.7981 15.0888 22.7981 15.6095 22.2775L20.9428 16.9441Z" fill="white"/>
</svg>
