<svg width="24" height="24" viewBox="0 0 24 24" fill="none" xmlns="http://www.w3.org/2000/svg">
<g clip-path="url(#clip0_2750_13493)">
<path d="M22.5 24H16.5C15.672 24 15 23.328 15 22.5V12C15 11.172 15.672 10.5 16.5 10.5H22.5C23.328 10.5 24 11.172 24 12V22.5C24 23.328 23.328 24 22.5 24Z" fill="white"/>
<path d="M3 3H15V7.5H18V3C18 1.3455 16.6545 0 15 0H3C1.3455 0 0 1.3455 0 3V18C0 19.6545 1.3455 21 3 21H12V15H3V3Z" fill="white"/>
</g>
<defs>
<clipPath id="clip0_2750_13493">
<rect width="24" height="24" fill="white"/>
</clipPath>
</defs>
</svg>
