<svg width="24" height="24" viewBox="0 0 24 24" fill="none" xmlns="http://www.w3.org/2000/svg">
<g clip-path="url(#clip0_2750_13485)">
<path d="M21.75 20.25H2.25C1.8 20.25 1.5 20.55 1.5 21V22.5C1.5 22.95 1.8 23.25 2.25 23.25H21.75C22.2 23.25 22.5 22.95 22.5 22.5V21C22.5 20.55 22.2 20.25 21.75 20.25Z" fill="white"/>
<path d="M23.25 3.75H17.25V1.5C17.25 1.05 16.95 0.75 16.5 0.75H7.5C7.05 0.75 6.75 1.05 6.75 1.5V3.75H0.75C0.3 3.75 0 4.05 0 4.5V18C0 18.45 0.3 18.75 0.75 18.75H23.25C23.7 18.75 24 18.45 24 18V4.5C24 4.05 23.7 3.75 23.25 3.75ZM15.75 12C15.75 12.45 15.45 12.75 15 12.75H13.5V14.25C13.5 14.7 13.2 15 12.75 15H11.25C10.8 15 10.5 14.7 10.5 14.25V12.75H9C8.55 12.75 8.25 12.45 8.25 12V10.5C8.25 10.05 8.55 9.75 9 9.75H10.5V8.25C10.5 7.8 10.8 7.5 11.25 7.5H12.75C13.2 7.5 13.5 7.8 13.5 8.25V9.75H15C15.45 9.75 15.75 10.05 15.75 10.5V12ZM15.75 3.75H8.25V2.25H15.75V3.75Z" fill="white"/>
</g>
<defs>
<clipPath id="clip0_2750_13485">
<rect width="24" height="24" fill="white"/>
</clipPath>
</defs>
</svg>
