<svg width="44" height="32" viewBox="0 0 44 32" fill="none" xmlns="http://www.w3.org/2000/svg">
<circle cx="32" cy="20" r="12" fill="#FFCB70"/>
<path fill-rule="evenodd" clip-rule="evenodd" d="M19.3333 4.0013C19.3333 3.26493 19.9303 2.66797 20.6667 2.66797H23.3333C24.0697 2.66797 24.6667 3.26493 24.6667 4.0013C24.6667 4.73768 24.0697 5.33464 23.3333 5.33464H20.6667C19.9303 5.33464 19.3333 4.73768 19.3333 4.0013ZM28.9333 5.53498C29.3751 4.94587 30.2109 4.82648 30.7999 5.26831L32.1333 6.26831C32.7223 6.71013 32.8418 7.54587 32.3999 8.13497C31.9581 8.72408 31.1223 8.84347 30.5333 8.40164L29.1999 7.40164C28.6109 6.95982 28.4914 6.12408 28.9333 5.53498ZM15.3334 5.53498C14.8915 4.94587 14.0558 4.82648 13.4667 5.26831L12.1334 6.26831C11.5443 6.71013 11.4248 7.54587 11.8667 8.13497C12.3086 8.72408 13.1443 8.84347 13.7334 8.40164L15.0667 7.40164C15.6558 6.95982 15.7752 6.12408 15.3334 5.53498ZM22 10.668C17.5817 10.668 14 14.2497 14 18.668C14 23.0862 17.5817 26.668 22 26.668C26.4183 26.668 30 23.0862 30 18.668C30 14.2497 26.4183 10.668 22 10.668ZM11.3333 18.668C11.3333 12.7769 16.109 8.0013 22 8.0013C27.8911 8.0013 32.6667 12.7769 32.6667 18.668C32.6667 24.559 27.8911 29.3346 22 29.3346C16.109 29.3346 11.3333 24.559 11.3333 18.668ZM20.6667 14.668C20.6667 13.9316 21.2636 13.3346 22 13.3346C22.7364 13.3346 23.3333 13.9316 23.3333 14.668V18.668C23.3333 19.4044 22.7364 20.0013 22 20.0013C21.2636 20.0013 20.6667 19.4044 20.6667 18.668V14.668Z" fill="white"/>
<circle cx="3" cy="3" r="3" fill="#FFCB70"/>
</svg>
