<svg width="20" height="20" viewBox="0 0 20 20" fill="none" xmlns="http://www.w3.org/2000/svg">
<path d="M10 17.5C14.1421 17.5 17.5 14.1421 17.5 10C17.5 5.85786 14.1421 2.5 10 2.5C5.85786 2.5 2.5 5.85786 2.5 10C2.5 14.1421 5.85786 17.5 10 17.5Z" stroke="#A0AEC0" stroke-width="1.5" stroke-linecap="round" stroke-linejoin="round"/>
<path d="M7.91667 12.4987C8.18823 12.7759 8.51237 12.9961 8.87011 13.1464C9.22784 13.2967 9.61197 13.3741 10 13.3741C10.388 13.3741 10.7722 13.2967 11.1299 13.1464C11.4876 12.9961 11.8118 12.7759 12.0833 12.4987M7.5 8.33203H7.50833H7.5ZM12.5 8.33203H12.5083H12.5Z" stroke="#A0AEC0" stroke-width="1.5" stroke-linecap="round" stroke-linejoin="round"/>
</svg>
