<svg width="24" height="24" viewBox="0 0 24 24" fill="none" xmlns="http://www.w3.org/2000/svg">
<path fill-rule="evenodd" clip-rule="evenodd" d="M3.18162 4.98265C1.60613 7.10007 1.60613 10.0906 3.1816 12.2081L8.3157 19.1082C10.1931 21.6313 13.8069 21.6313 15.6843 19.1082L20.8184 12.2081C22.3939 10.0906 22.3939 7.10007 20.8184 4.98264L20.6809 4.80659C18.6181 2.28729 14.509 2.51911 12.1297 4.79758L12 4.92653L11.8703 4.79758C9.43695 2.46733 5.19417 2.27781 3.18162 4.98265ZM19.2138 6.17654C20.2621 7.58536 20.2621 9.60535 19.2138 11.0142L14.0797 17.9143C13.0021 19.3626 10.9979 19.3626 9.92025 17.9143L4.78617 11.0142C3.73794 9.60536 3.73794 7.58536 4.78618 6.17654C6.20165 4.27417 9.77893 4.7728 11.1407 7.06057C11.5284 7.71192 12.4716 7.71192 12.8593 7.06057C14.2211 4.7728 17.7983 4.27417 19.2138 6.17654Z" fill="#E6521F"/>
</svg>
