<svg width="24" height="24" viewBox="0 0 24 24" fill="none" xmlns="http://www.w3.org/2000/svg">
<path fill-rule="evenodd" clip-rule="evenodd" d="M9.96428 2.20744C11.3079 1.93085 12.6921 1.93085 14.0357 2.20744C18.8766 3.20392 22.486 7.32055 22.9494 12.3105L22.9734 12.611L23 13.0416L23 14.4727L23 17.0208L23 18.432C23 20.3975 21.4339 22 19.4903 22C19.0818 22 18.6754 21.9423 18.2824 21.8285L17.9916 21.7442C16.2558 21.2415 14.949 19.7873 14.6072 17.9879C14.4144 16.9736 14.4144 15.9311 14.6072 14.9169C14.949 13.1173 16.2558 11.6631 17.9915 11.1605L18.2825 11.0762C18.6754 10.9624 19.0818 10.9047 19.4903 10.9047C19.9281 10.9047 20.3467 10.986 20.7326 11.1344C19.8936 7.64314 17.1562 4.89171 13.6325 4.16636C12.5549 3.94455 11.4451 3.94455 10.3675 4.16636C6.84384 4.89171 4.10645 7.64312 3.26739 11.1344C3.65328 10.986 4.07191 10.9047 4.50968 10.9047C4.91821 10.9047 5.32468 10.9624 5.71753 11.0762L6.00834 11.1605C7.74416 11.6631 9.05094 13.1173 9.39284 14.9169C9.58552 15.9311 9.58552 16.9736 9.39284 17.9878C9.05095 19.7874 7.74422 21.2415 6.00849 21.7442L5.71746 21.8285C5.32468 21.9423 4.91821 22 4.50968 22C2.56612 22 1.00001 20.3975 1.00001 18.432V17.0208H1L1.00001 17.0027V14.4727C1.00001 14.438 1.0005 14.4034 1.00147 14.369L1.00224 12.9747L1.02661 12.611C1.37012 7.48643 5.02663 3.22385 9.96428 2.20744ZM21 14.4727V17.0208V18.432C21 19.3031 20.3189 20 19.4903 20C19.2701 20 19.0509 19.9689 18.8389 19.9075L18.5481 19.8232C17.5403 19.5313 16.7742 18.6788 16.572 17.6146C16.4262 16.847 16.4262 16.0577 16.572 15.2902C16.7742 14.2259 17.5404 13.3733 18.5479 13.0815L18.839 12.9972C19.0509 12.9358 19.2701 12.9047 19.4903 12.9047C20.3189 12.9047 21 13.6016 21 14.4727ZM4.50968 12.9047C4.72989 12.9047 4.94904 12.9358 5.16102 12.9972L5.45191 13.0815C6.45964 13.3733 7.22579 14.2259 7.42798 15.2901C7.5738 16.0577 7.5738 16.847 7.42798 17.6146C7.22579 18.6788 6.45966 19.5313 5.452 19.8232L5.16095 19.9075C4.94904 19.9689 4.72989 20 4.50968 20C3.6811 20 3.00001 19.3031 3.00001 18.432V14.4727C3.00001 13.6016 3.6811 12.9047 4.50968 12.9047Z" fill="#212121"/>
</svg>
