<svg width="24" height="24" viewBox="0 0 24 24" fill="none" xmlns="http://www.w3.org/2000/svg">
<path fill-rule="evenodd" clip-rule="evenodd" d="M6.25003 0C2.79823 0 0 2.79823 0 6.25003C0 6.52621 0.223888 6.7501 0.500067 6.7501C0.776246 6.7501 1.00013 6.52621 1.00013 6.25003C1.00013 3.35059 3.35059 1.00013 6.25003 1.00013C6.52621 1.00013 6.7501 0.776246 6.7501 0.500067C6.7501 0.223888 6.52621 0 6.25003 0ZM17.75 0C17.4738 0 17.2499 0.223888 17.2499 0.500067C17.2499 0.776246 17.4738 1.00013 17.75 1.00013C20.6494 1.00013 22.9999 3.35059 22.9999 6.25003C22.9999 6.52621 23.2238 6.7501 23.4999 6.7501C23.7761 6.7501 24 6.52621 24 6.25003C24 2.79823 21.2018 0 17.75 0ZM1.00013 17.75C1.00013 17.4738 0.776246 17.2499 0.500067 17.2499C0.223888 17.2499 0 17.4738 0 17.75C0 21.2018 2.79823 24 6.25003 24C6.52621 24 6.7501 23.7761 6.7501 23.4999C6.7501 23.2238 6.52621 22.9999 6.25003 22.9999C3.35059 22.9999 1.00013 20.6494 1.00013 17.75ZM24 17.75C24 17.4738 23.7761 17.2499 23.4999 17.2499C23.2238 17.2499 22.9999 17.4738 22.9999 17.75C22.9999 20.6494 20.6494 22.9999 17.75 22.9999C17.4738 22.9999 17.2499 23.2238 17.2499 23.4999C17.2499 23.7761 17.4738 24 17.75 24C21.2018 24 24 21.2018 24 17.75ZM7.1157 6.48273C7.1157 6.20655 6.89181 5.98266 6.61563 5.98266C6.33945 5.98266 6.11556 6.20655 6.11556 6.48273V8.07809C6.11556 8.35427 6.33945 8.57816 6.61563 8.57816C6.89181 8.57816 7.1157 8.35427 7.1157 8.07809V6.48273ZM18.0174 6.48273C18.0174 6.20655 17.7935 5.98266 17.5174 5.98266C17.2412 5.98266 17.0173 6.20655 17.0173 6.48273V8.07809C17.0173 8.35427 17.2412 8.57816 17.5174 8.57816C17.7935 8.57816 18.0174 8.35427 18.0174 8.07809V6.48273ZM16.4443 15.2171C16.6485 15.4031 16.6632 15.7194 16.4772 15.9235C14.8143 17.7486 12.926 18.1496 11.2531 17.8777C9.61355 17.6112 8.20593 16.7059 7.40133 15.9515C7.19984 15.7627 7.18964 15.4462 7.37853 15.2447C7.56742 15.0432 7.88388 15.033 8.08536 15.2219C8.78443 15.8773 10.0177 16.6636 11.4136 16.8905C12.7763 17.112 14.3183 16.8081 15.7379 15.2499C15.9239 15.0458 16.2402 15.0311 16.4443 15.2171Z" fill="#212121"/>
<path d="M12.7993 6.59854C12.7993 7.75762 12.7993 9.2176 12.7993 10.5709C12.7993 12.2625 11.2956 12.0746 10.9197 11.7926" stroke="#212121" stroke-linecap="round"/>
</svg>
