<svg width="24" height="24" viewBox="0 0 24 24" fill="none" xmlns="http://www.w3.org/2000/svg">
<g clip-path="url(#clip0_2750_13489)">
<path d="M18.75 13.5C17.7116 13.5 16.6966 13.8079 15.8333 14.3848C14.9699 14.9617 14.297 15.7816 13.8996 16.7409C13.5023 17.7002 13.3983 18.7558 13.6009 19.7742C13.8034 20.7926 14.3035 21.7281 15.0377 22.4623C15.7719 23.1965 16.7074 23.6966 17.7258 23.8991C18.7442 24.1017 19.7998 23.9977 20.7591 23.6004C21.7184 23.203 22.5383 22.5301 23.1152 21.6667C23.6921 20.8034 24 19.7884 24 18.75C24 17.3576 23.4469 16.0223 22.4623 15.0377C21.4777 14.0531 20.1424 13.5 18.75 13.5ZM21.75 19.5H18V15.75H19.5V18H21.75V19.5Z" fill="white"/>
<path d="M12 21.75H3C2.80109 21.75 2.61032 21.671 2.46967 21.5303C2.32902 21.3897 2.25 21.1989 2.25 21V7.5C2.25 7.30109 2.32902 7.11032 2.46967 6.96967C2.61032 6.82902 2.80109 6.75 3 6.75H21C21.1989 6.75 21.3897 6.82902 21.5303 6.96967C21.671 7.11032 21.75 7.30109 21.75 7.5V12H23.25V4.5C23.25 4.10218 23.092 3.72064 22.8107 3.43934C22.5294 3.15804 22.1478 3 21.75 3H18V0.75C18 0.551088 17.921 0.360322 17.7803 0.21967C17.6397 0.0790176 17.4489 0 17.25 0C17.0511 0 16.8603 0.0790176 16.7197 0.21967C16.579 0.360322 16.5 0.551088 16.5 0.75V3H7.5V0.75C7.5 0.551088 7.42098 0.360322 7.28033 0.21967C7.13968 0.0790176 6.94891 0 6.75 0C6.55109 0 6.36032 0.0790176 6.21967 0.21967C6.07902 0.360322 6 0.551088 6 0.75V3H2.25C1.85218 3 1.47064 3.15804 1.18934 3.43934C0.908035 3.72064 0.75 4.10218 0.75 4.5V21.75C0.75 22.1478 0.908035 22.5294 1.18934 22.8107C1.47064 23.092 1.85218 23.25 2.25 23.25H12V21.75Z" fill="white"/>
</g>
<defs>
<clipPath id="clip0_2750_13489">
<rect width="24" height="24" fill="white"/>
</clipPath>
</defs>
</svg>
