<svg width="24" height="24" viewBox="0 0 24 24" fill="none" xmlns="http://www.w3.org/2000/svg">
<path fill-rule="evenodd" clip-rule="evenodd" d="M11.3647 2.06626C10.1371 2.33277 9.2482 3.42173 9.2482 4.6933L9.248 5.163L9.111 5.219L8.77915 4.8876C7.83914 3.94761 6.35329 3.83571 5.28313 4.62434C5.0317 4.80963 4.80963 5.0317 4.62436 5.2831L4.51781 5.43871C3.84824 6.49357 3.99236 7.88393 4.8876 8.77917L5.219 9.111L5.163 9.248L4.6933 9.2483C3.36393 9.2483 2.23415 10.2198 2.03507 11.5341C1.98831 11.8431 1.98831 12.1571 2.03507 12.4658L2.06626 12.6353C2.33277 13.8629 3.42173 14.7518 4.69329 14.7518L5.163 14.751L5.219 14.888L4.8876 15.2208C3.9476 16.1608 3.83571 17.6467 4.62435 18.7169C4.80965 18.9683 5.03175 19.1904 5.28319 19.3757L5.43879 19.4822C6.49359 20.1517 7.88395 20.0077 8.77918 19.1124L9.111 18.78L9.248 18.836L9.2482 19.3067C9.2482 20.6361 10.2198 21.7659 11.5342 21.9649C11.843 22.0116 12.157 22.0117 12.4657 21.9649L12.6352 21.9338C13.8628 21.6673 14.7517 20.5783 14.7517 19.3067L14.751 18.836L14.888 18.78L15.2208 19.1124C16.1608 20.0524 17.6467 20.1643 18.7168 19.3756C18.9682 19.1904 19.1904 18.9682 19.3757 18.7168L19.4822 18.5612C20.1517 17.5064 20.0077 16.116 19.1123 15.2208L18.78 14.888L18.836 14.751L19.3067 14.7518C20.6361 14.7518 21.7659 13.7802 21.9649 12.4658C22.0116 12.157 22.0116 11.8431 21.965 11.5344L21.9338 11.3649C21.6673 10.1372 20.5783 9.2483 19.3067 9.2483L18.836 9.248L18.78 9.111L19.1124 8.77915C20.0524 7.83918 20.1643 6.35331 19.3756 5.28313C19.1904 5.03174 18.9683 4.80964 18.7168 4.62434L18.5612 4.5178C17.5064 3.84825 16.1161 3.99236 15.2208 4.88758L14.888 5.219L14.751 5.163L14.7517 4.69329C14.7517 3.36393 13.7802 2.23415 12.4658 2.03507C12.1571 1.98831 11.8431 1.98831 11.5342 2.03506L11.3647 2.06626ZM12.1663 4.01252C12.5029 4.0635 12.7517 4.35281 12.7517 4.69329V5.87396C12.7517 6.32056 13.0478 6.71301 13.4773 6.83557C13.8712 6.94797 14.2497 7.10518 14.6064 7.30371C14.9968 7.52097 15.4839 7.45293 15.7998 7.13702L16.635 6.30181C16.8758 6.06108 17.2563 6.03242 17.5303 6.23438C17.6201 6.30056 17.6994 6.37985 17.7655 6.46957C17.9676 6.74371 17.9389 7.12422 17.6982 7.36492L16.863 8.20015C16.5471 8.51602 16.4791 9.00306 16.6962 9.39341C16.8948 9.75035 17.052 10.1289 17.1644 10.5227C17.2869 10.9522 17.6794 11.2483 18.126 11.2483H19.3067C19.6472 11.2483 19.9365 11.4971 19.9875 11.8336C20.0041 11.9439 20.0041 12.0562 19.9875 12.1665C19.9365 12.503 19.6471 12.7518 19.3067 12.7518H18.1261C17.6796 12.7518 17.2872 13.0478 17.1645 13.4772C17.052 13.8711 16.8948 14.2498 16.6962 14.6067C16.4791 14.997 16.5471 15.484 16.863 15.7999L17.6982 16.6351C17.9389 16.8758 17.9676 17.2563 17.7656 17.5303C17.6994 17.6201 17.6201 17.6994 17.5304 17.7655C17.2563 17.9676 16.8757 17.9389 16.635 17.6982L15.7998 16.863C15.4839 16.5471 14.9968 16.4791 14.6065 16.6963C14.2497 16.8948 13.8711 17.052 13.4771 17.1645C13.0477 17.2871 12.7517 17.6796 12.7517 18.1261V19.3067C12.7517 19.6472 12.5029 19.9365 12.1664 19.9875C12.0562 20.0041 11.9438 20.0041 11.8335 19.9875C11.497 19.9365 11.2482 19.6471 11.2482 19.3067V18.126C11.2482 17.6794 10.9521 17.287 10.5227 17.1644C10.1289 17.052 9.75032 16.8948 9.39341 16.6962C9.00306 16.4791 8.51602 16.5471 8.20015 16.863L7.36494 17.6982C7.12422 17.9389 6.74372 17.9676 6.46962 17.7656C6.37984 17.6994 6.30055 17.6201 6.23439 17.5304C6.03242 17.2563 6.06108 16.8758 6.30183 16.635L7.13702 15.7998C7.45293 15.4839 7.52097 14.9968 7.30371 14.6064C7.1052 14.2497 6.94797 13.8712 6.83555 13.4773C6.71298 13.0479 6.32053 12.7518 5.87396 12.7518H4.69329C4.35285 12.7518 4.06351 12.503 4.01252 12.1663C3.99582 12.0561 3.99582 11.9439 4.01253 11.8336C4.0635 11.4971 4.3528 11.2483 4.6933 11.2483H5.87397C6.32056 11.2483 6.71302 10.9522 6.83558 10.5227C6.94796 10.1289 7.10517 9.75036 7.30374 9.39352C7.52096 9.00315 7.45291 8.51606 7.13702 8.20017L6.30181 7.36496C6.06108 7.12422 6.03242 6.74368 6.23439 6.46961C6.30054 6.37985 6.37985 6.30054 6.46963 6.23437C6.74368 6.03243 7.1242 6.06108 7.36495 6.30182L8.20015 7.13702C8.51603 7.45291 9.00311 7.52096 9.39347 7.30375C9.75032 7.1052 10.1289 6.94797 10.5227 6.83556C10.9521 6.71298 11.2482 6.32054 11.2482 5.87397V4.6933C11.2482 4.35285 11.497 4.06351 11.8336 4.01253C11.9439 3.99582 12.0561 3.99582 12.1663 4.01252ZM12 8.5C10.067 8.5 8.5 10.067 8.5 12C8.5 13.933 10.067 15.5 12 15.5C13.933 15.5 15.5 13.933 15.5 12C15.5 10.067 13.933 8.5 12 8.5ZM12 10.5C12.8284 10.5 13.5 11.1716 13.5 12C13.5 12.8284 12.8284 13.5 12 13.5C11.1716 13.5 10.5 12.8284 10.5 12C10.5 11.1716 11.1716 10.5 12 10.5Z" fill="#212121"/>
</svg>
