<svg width="24" height="24" viewBox="0 0 24 24" fill="none" xmlns="http://www.w3.org/2000/svg">
<g clip-path="url(#clip0_2750_13341)">
<path d="M14.25 12.75H9.75C9.336 12.75 9 13.086 9 13.5V23.25C9 23.664 9.336 24 9.75 24H14.25C14.664 24 15 23.664 15 23.25V13.5C15 13.086 14.664 12.75 14.25 12.75Z" fill="white"/>
<path d="M5.25 17.25H0.75C0.336 17.25 0 17.586 0 18V23.25C0 23.664 0.336 24 0.75 24H5.25C5.664 24 6 23.664 6 23.25V18C6 17.586 5.664 17.25 5.25 17.25Z" fill="white"/>
<path d="M23.25 8.25H18.75C18.336 8.25 18 8.586 18 9V23.25C18 23.664 18.336 24 18.75 24H23.25C23.664 24 24 23.664 24 23.25V9C24 8.586 23.664 8.25 23.25 8.25Z" fill="white"/>
<path d="M12 9C12.192 9 12.384 8.9265 12.5302 8.78025L18.75 2.5605V6H20.25V0.75C20.25 0.336 19.914 0 19.5 0H14.25V1.5H17.6895L12 7.1895L8.78025 3.96975C8.487 3.6765 8.013 3.6765 7.71975 3.96975L3.96975 7.71975L5.03025 8.78025L8.25 5.5605L11.4697 8.78025C11.616 8.9265 11.808 9 12 9Z" fill="white"/>
</g>
<defs>
<clipPath id="clip0_2750_13341">
<rect width="24" height="24" fill="white"/>
</clipPath>
</defs>
</svg>
