<svg width="32" height="32" viewBox="0 0 32 32" fill="none" xmlns="http://www.w3.org/2000/svg">
<path fill-rule="evenodd" clip-rule="evenodd" d="M17.7333 16.2946C19.1729 15.0486 20 13.2386 20 11.3346C20 7.65274 17.0152 4.66797 13.3333 4.66797C9.65144 4.66797 6.66667 7.65274 6.66667 11.3346C6.66665 13.2386 7.49381 15.0486 8.93334 16.2946C5.12126 18.0208 2.67068 21.8166 2.66667 26.0013C2.66667 26.7377 3.26363 27.3346 4.00001 27.3346C4.73638 27.3346 5.33334 26.7377 5.33334 26.0013C5.33334 21.583 8.91506 18.0013 13.3333 18.0013C17.7516 18.0013 21.3333 21.583 21.3333 26.0013C21.3333 26.7377 21.9303 27.3346 22.6667 27.3346C23.4031 27.3346 24 26.7377 24 26.0013C23.996 21.8166 21.5454 18.0208 17.7333 16.2946ZM13.3333 15.3346C11.1242 15.3346 9.33334 13.5438 9.33334 11.3346C9.33334 9.1255 11.1242 7.33464 13.3333 7.33464C15.5425 7.33464 17.3333 9.1255 17.3333 11.3346C17.3333 12.3955 16.9119 13.4129 16.1618 14.1631C15.4116 14.9132 14.3942 15.3346 13.3333 15.3346ZM28.9467 12.1746C28.6963 11.9222 28.3555 11.7802 28 11.7802C27.6445 11.7802 27.3037 11.9222 27.0533 12.1746L24.3867 14.8413L23.56 14.0013C23.3097 13.7489 22.9689 13.6069 22.6133 13.6069C22.2578 13.6069 21.917 13.7489 21.6667 14.0013C21.1497 14.5214 21.1497 15.3613 21.6667 15.8813L23.4533 17.668C23.9734 18.1849 24.8133 18.1849 25.3333 17.668L28.8933 14.108C29.1654 13.8636 29.3252 13.5183 29.3352 13.1528C29.3453 12.7872 29.2048 12.4336 28.9467 12.1746Z" fill="#0CAF60"/>
</svg>
