<svg width="24" height="24" viewBox="0 0 24 24" fill="none" xmlns="http://www.w3.org/2000/svg">
<path fill-rule="evenodd" clip-rule="evenodd" d="M11.3844 4.2965C11.0133 4.58166 10.5678 5.02731 9.88118 5.71882L5.70999 9.91969V14.6374C5.70999 16.692 6.89423 18.5133 8.67111 19.3649C8.63809 18.9566 8.65911 18.5432 8.73559 18.1358L8.75493 18.0328C8.98523 16.8059 9.89011 15.8129 11.0937 15.479C11.6868 15.3144 12.3132 15.3144 12.9063 15.479C14.1099 15.8129 15.0148 16.8059 15.2451 18.0328L15.2644 18.1358C15.3409 18.5432 15.3619 18.9566 15.3289 19.3649C17.1058 18.5132 18.29 16.692 18.29 14.6374V9.91967L14.1188 5.71882C13.4322 5.02731 12.9867 4.58166 12.6156 4.2965C12.2672 4.02884 12.1055 4 12 4C11.8945 4 11.7328 4.02884 11.3844 4.2965ZM20.29 11.9339C20.6791 12.3258 21.3127 12.3284 21.7046 11.9393C22.0965 11.5502 22.0987 10.917 21.7096 10.5251L15.4915 4.26278C14.8647 3.63142 14.3247 3.08757 13.8342 2.71062C13.3087 2.30687 12.723 2 12 2C11.277 2 10.6913 2.30687 10.1658 2.71062C9.67526 3.08757 9.13531 3.63142 8.50847 4.26279C8.49302 4.27835 8.47752 4.29397 8.46196 4.30963L2.29039 10.5251C1.90125 10.917 1.9035 11.5502 2.2954 11.9393C2.68731 12.3284 3.32047 12.3262 3.70961 11.9343L3.70999 14.6374C3.70999 17.9913 6.00281 20.9116 9.25682 21.6803C11.0611 22.1066 12.9389 22.1066 14.7432 21.6803C17.9972 20.9116 20.29 17.9913 20.29 14.6374V11.9339ZM13.1708 19.9307C13.3436 19.4782 13.3888 18.9844 13.2987 18.5048L13.2794 18.4018C13.1887 17.9185 12.8341 17.5345 12.3716 17.4061C12.1283 17.3387 11.8717 17.3387 11.6284 17.4061C11.1659 17.5345 10.8113 17.9185 10.7206 18.4018L10.7013 18.5048C10.6112 18.9844 10.6564 19.4782 10.8292 19.9307C11.607 20.0231 12.393 20.0231 13.1708 19.9307Z" fill="#9DA4B7"/>
</svg>
