<svg width="18" height="7" viewBox="0 0 18 7" fill="none" xmlns="http://www.w3.org/2000/svg">
<path fill-rule="evenodd" clip-rule="evenodd" d="M1.84596 3.16915H2.32947C3.44489 3.16915 3.53202 2.8484 3.53202 2.39362C3.53202 1.87564 3.26394 1.62287 2.71532 1.62287H1.84596V3.16915ZM8.13543 5.35309H8.79989C9.54191 5.35309 10.3012 5.13287 10.3012 3.49755C10.3012 1.84883 9.49883 1.63723 8.79989 1.63723H8.13543V5.35309ZM1.46298 6.99032H0.382979C0.171383 6.99032 0 6.81798 0 6.60638V0.382979C0 0.17234 0.171383 0 0.382979 0H2.87713C4.36021 0 5.39713 0.984255 5.39713 2.39362C5.39713 3.82308 4.38223 4.7834 2.87234 4.7834H1.84596V6.60638C1.84596 6.81798 1.67457 6.99032 1.46298 6.99032ZM8.91383 6.99032H6.67245C6.46085 6.99032 6.28947 6.81798 6.28947 6.60638V0.382979C6.28947 0.17234 6.46085 0 6.67245 0H8.91383C11.0212 0 12.1816 1.23702 12.1816 3.48415C12.1816 5.74468 11.0212 6.99032 8.91383 6.99032ZM14.6891 6.99032H13.6082C13.3966 6.99032 13.2252 6.81798 13.2252 6.60638V0.382979C13.2252 0.17234 13.3966 0 13.6082 0H17.617C17.8277 0 18 0.17234 18 0.382979V1.26287C18 1.47447 17.8277 1.64585 17.617 1.64585H15.0721V2.78617H17.3643C17.5759 2.78617 17.7472 2.95755 17.7472 3.16915V4.03564C17.7472 4.24628 17.5759 4.41862 17.3643 4.41862H15.0721V6.60638C15.0721 6.81798 14.9007 6.99032 14.6891 6.99032Z" fill="white"/>
</svg>
