<svg width="24" height="24" viewBox="0 0 24 24" fill="none" xmlns="http://www.w3.org/2000/svg">
<path d="M21 0H3C2.448 0 2 0.448 2 1V23C2 23.552 2.448 24 3 24H21C21.552 24 22 23.552 22 23V1C22 0.448 21.552 0 21 0ZM18 19.5C18 19.776 17.776 20 17.5 20H6.5C6.224 20 6 19.776 6 19.5V18.5C6 18.224 6.224 18 6.5 18H17.5C17.776 18 18 18.224 18 18.5V19.5ZM18 14.5C18 14.776 17.776 15 17.5 15H6.5C6.224 15 6 14.776 6 14.5V13.5C6 13.224 6.224 13 6.5 13H17.5C17.776 13 18 13.224 18 13.5V14.5ZM18 9.5C18 9.776 17.776 10 17.5 10H6.5C6.224 10 6 9.776 6 9.5V4.5C6 4.224 6.224 4 6.5 4H17.5C17.776 4 18 4.224 18 4.5V9.5Z" fill="white"/>
</svg>
