<svg width="24" height="24" viewBox="0 0 24 24" fill="none" xmlns="http://www.w3.org/2000/svg">
<path fill-rule="evenodd" clip-rule="evenodd" d="M12 2C12.5523 2 13 2.44772 13 3V3.06511C13.4333 3.12283 13.8622 3.22063 14.2807 3.35882C16.5766 4.11709 18.3317 5.99097 18.9466 8.33457L19.5347 10.5764L20.0063 12.7119C20.0453 12.8885 20.0946 13.0897 20.1472 13.3043C20.2595 13.763 20.3869 14.2828 20.4608 14.7547C20.4867 14.9201 20.5 15.089 20.5 15.2604C20.5 16.7988 19.421 18.1296 17.912 18.437L17.5444 18.5119C16.9819 18.6265 16.4168 18.7235 15.8499 18.8028L15.7893 19.0493C15.4435 20.4553 14.3442 21.5528 12.9365 21.8895C12.3208 22.0368 11.6792 22.0368 11.0635 21.8895C9.65582 21.5528 8.55647 20.4553 8.21075 19.0493L8.15014 18.8028C7.58318 18.7235 7.01805 18.6265 6.45556 18.5119L6.08797 18.437C4.57903 18.1296 3.5 16.7988 3.5 15.2604C3.5 15.089 3.51334 14.9201 3.53922 14.7547C3.6131 14.2828 3.74046 13.763 3.85284 13.3043C3.90541 13.0897 3.95471 12.8886 3.99372 12.7119L4.46612 10.5725L5.0626 8.37107C5.70595 5.99664 7.52267 4.10537 9.85002 3.35096C10.2262 3.22902 10.611 3.13895 11 3.08099V3C11 2.44772 11.4477 2 12 2ZM11.9537 5.00369C11.4511 5.01373 10.9491 5.09713 10.4667 5.2535C8.77735 5.80112 7.45829 7.17683 6.993 8.89411L6.40888 11.0499L5.94667 13.1431C5.88537 13.4207 5.82373 13.6703 5.76542 13.9064C5.66633 14.3075 5.57689 14.6697 5.51516 15.064C5.50524 15.1274 5.5 15.1929 5.5 15.2604C5.5 15.8545 5.91606 16.3609 6.48721 16.4773L6.85481 16.5522C7.7037 16.7251 8.55908 16.8548 9.41769 16.9413C11.2339 17.1242 13.0646 17.1137 14.8792 16.9097C15.6381 16.8243 16.3942 16.7052 17.1452 16.5522L17.5128 16.4773C18.0839 16.3609 18.5 15.8545 18.5 15.2604C18.5 15.1929 18.4948 15.1274 18.4848 15.064C18.4231 14.6697 18.3337 14.3075 18.2346 13.9064C18.1763 13.6703 18.1146 13.4207 18.0533 13.1431L17.5903 11.046L17.012 8.84212C16.5683 7.15071 15.303 5.8027 13.6535 5.25793C13.1402 5.08843 12.603 5.0035 12.065 5.00266C12.0435 5.00404 12.0218 5.00474 12 5.00474C11.9845 5.00474 11.9691 5.00439 11.9537 5.00369ZM10.3265 19.0205C10.5762 19.4805 11.0103 19.8204 11.5288 19.9444C11.8386 20.0185 12.1614 20.0185 12.4712 19.9444C12.9897 19.8204 13.4238 19.4805 13.6735 19.0205C12.5589 19.0878 11.4411 19.0878 10.3265 19.0205Z" fill="#9DA4B7"/>
</svg>
