<svg width="20" height="20" viewBox="0 0 20 20" fill="none" xmlns="http://www.w3.org/2000/svg">
<g clip-path="url(#clip0_3175_19973)">
<path d="M15.8334 6.66667C17.6667 6.66667 19.1667 5.16667 19.1667 3.33333C19.1667 1.5 17.6667 0 15.8334 0C14 0 12.5 1.5 12.5 3.33333C12.5 3.66667 12.5834 3.91667 12.6667 4.16667L6.58337 7.66667C5.91671 7.08333 5.08337 6.66667 4.16671 6.66667C2.33337 6.66667 0.833374 8.16667 0.833374 10C0.833374 11.8333 2.33337 13.3333 4.16671 13.3333C5.08337 13.3333 5.91671 12.9167 6.58337 12.3333L12.6667 15.8333C12.5834 16.0833 12.5 16.4167 12.5 16.6667C12.5 18.5 14 20 15.8334 20C17.6667 20 19.1667 18.5 19.1667 16.6667C19.1667 14.8333 17.6667 13.3333 15.8334 13.3333C14.9167 13.3333 14.0834 13.75 13.4167 14.3333L7.33337 10.8333C7.41671 10.5833 7.50004 10.3333 7.50004 10C7.50004 9.66667 7.41671 9.41667 7.33337 9.16667L13.4167 5.66667C14.0834 6.25 14.9167 6.66667 15.8334 6.66667Z" fill="#212121"/>
</g>
<defs>
<clipPath id="clip0_3175_19973">
<rect width="20" height="20" fill="white"/>
</clipPath>
</defs>
</svg>
