<svg width="24" height="24" viewBox="0 0 24 24" fill="none" xmlns="http://www.w3.org/2000/svg">
<g clip-path="url(#clip0_2750_13352)">
<path d="M10.5 12.75C13.9342 12.75 16.5 9.18675 16.5 6C16.5 2.69175 13.8082 0 10.5 0C7.19175 0 4.5 2.69175 4.5 6C4.5 9.18675 7.06575 12.75 10.5 12.75Z" fill="white"/>
<path d="M12 18.75C12 17.1 12.5933 15.5903 13.5765 14.418C12.6443 14.3145 11.6243 14.25 10.5 14.25C6.26475 14.25 3.4185 15.1185 1.776 15.8467C0.6975 16.3252 0 17.4008 0 18.5873V22.5C0 22.914 0.336 23.25 0.75 23.25H13.7288C12.657 22.0553 12 20.481 12 18.75Z" fill="white"/>
<path d="M18.75 13.5C15.855 13.5 13.5 15.855 13.5 18.75C13.5 21.645 15.855 24 18.75 24C21.645 24 24 21.645 24 18.75C24 15.855 21.645 13.5 18.75 13.5ZM18.5303 20.7803C18.384 20.9265 18.192 21 18 21C17.808 21 17.616 20.9265 17.4697 20.7803L15.4395 18.75L16.5 17.6895L18 19.1895L21 16.1895L22.0605 17.25L18.5303 20.7803Z" fill="white"/>
</g>
<defs>
<clipPath id="clip0_2750_13352">
<rect width="24" height="24" fill="white"/>
</clipPath>
</defs>
</svg>
