<svg width="32" height="32" viewBox="0 0 32 32" fill="none" xmlns="http://www.w3.org/2000/svg">
<path fill-rule="evenodd" clip-rule="evenodd" d="M5.33334 16.0013C5.33334 10.1103 10.109 5.33464 16 5.33464C21.8911 5.33464 26.6667 10.1103 26.6667 16.0013C26.6667 21.8924 21.8911 26.668 16 26.668C10.109 26.668 5.33334 21.8924 5.33334 16.0013ZM16 2.66797C8.63621 2.66797 2.66667 8.6375 2.66667 16.0013C2.66667 23.365 8.63621 29.3346 16 29.3346C23.3637 29.3346 29.3333 23.365 29.3333 16.0013C29.3333 8.6375 23.3637 2.66797 16 2.66797ZM13.0225 13.1554C13.66 13.5241 14.4756 13.3064 14.8443 12.6689C16.1203 10.8218 18.5868 13.2813 16.5645 14.4834C16.2011 14.6996 15.7257 15.0593 15.3641 15.4998C15.0217 15.917 14.7073 16.4909 14.6704 17.196C14.6656 17.2416 14.6632 17.2878 14.6632 17.3346C14.6632 18.071 15.2603 18.668 15.9965 18.668C17.013 18.668 17.2064 18.128 17.4017 17.5832C17.5273 17.2327 17.6536 16.8801 18.0001 16.668C19.1023 15.9933 20 14.7982 20.0001 13.3346C20.0001 11.1255 18.2092 9.33463 16.0001 9.33463C14.5179 9.33463 13.2256 10.1415 12.536 11.3337C12.1673 11.9711 12.3851 12.7867 13.0225 13.1554ZM14.6632 21.3346C14.6632 20.5982 15.2603 20.0013 15.9965 20.0013C16.7329 20.0013 17.3299 20.5982 17.3299 21.3346C17.3299 22.071 16.7329 22.668 15.9965 22.668C15.2603 22.668 14.6632 22.071 14.6632 21.3346Z" fill="white"/>
</svg>
