<svg width="23" height="27" viewBox="0 0 23 27" fill="none" xmlns="http://www.w3.org/2000/svg">
<path d="M20.7439 13.6519C20.3679 13.6517 20.0001 13.5405 19.6856 13.332C19.371 13.1235 19.1234 12.8267 18.973 12.4779L14.7971 2.7419C14.6956 2.50603 14.6409 2.25222 14.6363 1.99496C14.6317 1.73771 14.6771 1.48206 14.7701 1.2426C14.8631 1.00313 15.0018 0.78455 15.1783 0.59933C15.3547 0.414111 15.5655 0.265882 15.7986 0.163104C16.0316 0.0603264 16.2824 0.00501421 16.5366 0.00032539C16.7908 -0.00436343 17.0434 0.0416621 17.28 0.135776C17.5166 0.22989 17.7326 0.370248 17.9156 0.548836C18.0986 0.727425 18.2451 0.940747 18.3466 1.17662L22.5187 10.9166C22.6472 11.2145 22.7003 11.5402 22.6732 11.8642C22.6461 12.1882 22.5396 12.5002 22.3635 12.7721C22.1873 13.044 21.947 13.2672 21.6642 13.4214C21.3815 13.5757 21.0652 13.6563 20.7439 13.6558V13.6519Z" fill="#55C790"/>
<path d="M1.99814 26.9997C1.4854 27.0168 0.986937 26.8271 0.612412 26.4722C0.237886 26.1174 0.0179739 25.6265 0.00105357 25.1076C-0.0158668 24.5887 0.17159 24.0842 0.522187 23.7052C0.872784 23.3262 1.3578 23.1036 1.87054 23.0865L12.3296 22.3782C12.8423 22.3434 13.3477 22.5162 13.7346 22.8585C14.1214 23.2009 14.3581 23.6848 14.3924 24.2037C14.4268 24.7226 14.256 25.2341 13.9178 25.6256C13.5795 26.0171 13.1014 26.2566 12.5887 26.2914L2.12573 26.9957L1.99814 26.9997Z" fill="#55C790"/>
<path d="M13.123 17.3692C12.7408 17.368 12.3677 17.2508 12.052 17.0327L3.3638 11.069C2.94824 10.7738 2.66407 10.325 2.57269 9.81962C2.48131 9.31419 2.59003 8.79267 2.87539 8.3677C3.16075 7.94272 3.59983 7.64841 4.09779 7.54831C4.59576 7.44822 5.11265 7.55039 5.53681 7.83275L14.2095 13.7965C14.5506 14.032 14.8081 14.3718 14.9445 14.7662C15.0809 15.1606 15.089 15.5888 14.9675 15.9882C14.8461 16.3875 14.6015 16.737 14.2696 16.9856C13.9377 17.2341 13.5359 17.3685 13.123 17.3692Z" fill="#55C790"/>
</svg>
