<svg width="24" height="24" viewBox="0 0 24 24" fill="none" xmlns="http://www.w3.org/2000/svg">
<path fill-rule="evenodd" clip-rule="evenodd" d="M2.37931 8.72206C3.11753 5.57488 5.57489 3.11753 8.72207 2.37931C10.8781 1.87356 13.1219 1.87356 15.278 2.37931C18.4251 3.11753 20.8824 5.57488 21.6207 8.72207C22.1264 10.8781 22.1264 13.1219 21.6207 15.278C20.8824 18.4251 18.4251 20.8824 15.278 21.6207C13.1219 22.1264 10.8781 22.1264 8.72206 21.6207C5.57488 20.8824 3.11753 18.4251 2.37931 15.278C1.87356 13.1219 1.87356 10.8781 2.37931 8.72206ZM19.6735 9.1788C19.1088 6.77113 17.2289 4.89121 14.8212 4.32646L14.4225 4.23985C12.6901 3.8934 10.9019 3.92227 9.17881 4.32646C6.77114 4.89121 4.89121 6.77114 4.32646 9.1788C3.89118 11.0345 3.89118 12.9655 4.32646 14.8212C4.89121 17.2289 6.77113 19.1088 9.1788 19.6735C11.0345 20.1088 12.9655 20.1088 14.8212 19.6735C17.2289 19.1088 19.1088 17.2289 19.6735 14.8212C20.1088 12.9655 20.1088 11.0345 19.6735 9.1788ZM11 15.5C11 14.9477 11.4477 14.5 12 14.5C12.5523 14.5 13 14.9477 13 15.5C13 16.0523 12.5523 16.5 12 16.5C11.4477 16.5 11 16.0523 11 15.5ZM14.9949 9.32373C14.9037 7.74891 13.5977 6.5 12 6.5C10.3431 6.5 9 7.84314 9 9.5V10L9.00673 10.1166C9.0645 10.614 9.48717 11 10 11C10.5523 11 11 10.5523 11 10V9.5L11.0067 9.38338C11.0645 8.88603 11.4872 8.5 12 8.5C12.5523 8.5 13 8.9477 13 9.5V9.62132L12.9928 9.74784C12.9644 9.99866 12.8518 10.234 12.6716 10.4142L11.2929 11.7929L11.2097 11.8871C10.9047 12.2794 10.9324 12.8466 11.2929 13.2071C11.6834 13.5976 12.3166 13.5976 12.7071 13.2071L14.0858 11.8284L14.2268 11.6778C14.7237 11.1105 15 10.3801 15 9.62132V9.5L14.9949 9.32373Z" fill="#212121"/>
</svg>
