<svg width="24" height="24" viewBox="0 0 24 24" fill="none" xmlns="http://www.w3.org/2000/svg">
<path d="M23.25 21H0.75C0.551088 21 0.360322 20.921 0.21967 20.7803C0.0790176 20.6397 0 20.4489 0 20.25C0 20.0511 0.0790176 19.8603 0.21967 19.7197C0.360322 19.579 0.551088 19.5 0.75 19.5H23.25C23.4489 19.5 23.6397 19.579 23.7803 19.7197C23.921 19.8603 24 20.0511 24 20.25C24 20.4489 23.921 20.6397 23.7803 20.7803C23.6397 20.921 23.4489 21 23.25 21Z" fill="white"/>
<path d="M12.75 4.53825V3C12.75 2.80109 12.671 2.61032 12.5303 2.46967C12.3897 2.32902 12.1989 2.25 12 2.25C11.8011 2.25 11.6103 2.32902 11.4697 2.46967C11.329 2.61032 11.25 2.80109 11.25 3V4.53825C8.60425 4.72895 6.12859 5.91348 4.32008 7.85401C2.51157 9.79454 1.50412 12.3474 1.5 15V18H22.5V15C22.4959 12.3474 21.4884 9.79454 19.6799 7.85401C17.8714 5.91348 15.3957 4.72895 12.75 4.53825ZM15.1395 12.6105L12 15.75L8.8605 12.6105C8.65601 12.4088 8.49551 12.1669 8.3891 11.9001C8.28269 11.6333 8.23267 11.3474 8.24221 11.0603C8.25174 10.7732 8.32061 10.4913 8.44448 10.2321C8.56835 9.97296 8.74454 9.74227 8.96196 9.55457C9.17937 9.36686 9.4333 9.22621 9.70774 9.14147C9.98219 9.05672 10.2712 9.02973 10.5566 9.06218C10.842 9.09463 11.1176 9.18582 11.366 9.33001C11.6144 9.47421 11.8303 9.66828 12 9.9C12.1707 9.67084 12.3868 9.47932 12.6348 9.33739C12.8829 9.19546 13.1575 9.10616 13.4415 9.07506C13.7256 9.04397 14.013 9.07175 14.2859 9.15666C14.5587 9.24158 14.8111 9.38181 15.0274 9.56861C15.2436 9.75541 15.419 9.98478 15.5427 10.2424C15.6664 10.5 15.7356 10.7803 15.7462 11.0659C15.7567 11.3515 15.7082 11.6361 15.6039 11.9021C15.4995 12.1681 15.3414 12.4098 15.1395 12.612V12.6105Z" fill="white"/>
</svg>
