<svg width="20" height="20" viewBox="0 0 20 20" fill="none" xmlns="http://www.w3.org/2000/svg">
<path fill-rule="evenodd" clip-rule="evenodd" d="M5.58071 1.66602C5.25591 1.66602 4.93293 1.71547 4.62137 1.81275L4.39881 1.88225C3.04378 2.30535 2.03733 3.51284 1.7766 4.9925C1.6303 5.82279 1.6303 6.67591 1.77659 7.50619C1.78618 7.56061 1.79678 7.61466 1.80837 7.66831L1.83399 7.79872C2.92971 13.0734 7.09141 17.1835 12.3942 18.2043C12.4271 18.2109 12.4602 18.2171 12.4934 18.223C13.3237 18.3692 14.1767 18.3692 15.0071 18.223C16.4868 17.9622 17.6943 16.9558 18.1174 15.6007L18.1869 15.3781C18.2841 15.0665 18.3336 14.7436 18.3336 14.4188C18.3336 12.8793 16.9951 11.666 15.3827 11.666H12.1178C10.5053 11.666 9.1669 12.8793 9.1669 14.4188C9.1669 14.731 9.21261 15.0415 9.30252 15.3419C7.34419 14.2694 5.73022 12.6554 4.65774 10.6971C4.95824 10.787 5.26867 10.8327 5.58071 10.8327C7.1203 10.8327 8.33354 9.49425 8.33354 7.8818V4.6169C8.33354 3.00444 7.1203 1.66602 5.58071 1.66602ZM3.43074 7.28419C3.6031 8.13403 4.17139 8.79942 4.89567 9.02557L5.11796 9.095C5.26923 9.14219 5.42482 9.16602 5.58074 9.16602C6.16135 9.16602 6.6669 8.6083 6.6669 7.8818V4.6169C6.6669 3.89039 6.16136 3.33268 5.58074 3.33268C5.42475 3.33268 5.26923 3.35649 5.11817 3.40366L4.89562 3.47316C4.1524 3.70523 3.5734 4.39988 3.41801 5.28172C3.30563 5.91948 3.30542 6.57558 3.41738 7.21339C3.42176 7.23702 3.42622 7.26061 3.43074 7.28419ZM12.6717 16.5596L12.7881 16.5825C13.4254 16.6941 14.0807 16.6938 14.7179 16.5816C15.5997 16.4262 16.2944 15.8472 16.5264 15.104L16.5959 14.8815C16.6431 14.7303 16.6669 14.5748 16.6669 14.4188C16.6669 13.8382 16.1092 13.3327 15.3826 13.3327H12.1178C11.3913 13.3327 10.8336 13.8382 10.8336 14.4188C10.8336 14.5748 10.8574 14.7303 10.9045 14.8814L10.974 15.104C11.1963 15.8158 11.8428 16.3769 12.6717 16.5596Z" fill="#212121"/>
</svg>
