<svg width="24" height="24" viewBox="0 0 24 24" fill="none" xmlns="http://www.w3.org/2000/svg">
<path fill-rule="evenodd" clip-rule="evenodd" d="M16.2413 4H7.7587H7.75859C6.95367 3.99999 6.28935 3.99998 5.74817 4.04419C5.18608 4.09012 4.66937 4.18868 4.18404 4.43597C3.43139 4.81947 2.81947 5.43139 2.43597 6.18404C2.18868 6.66937 2.09012 7.18608 2.04419 7.74818C1.99998 8.28935 1.99999 8.95367 2 9.75859V9.7587V14.2413V14.2414C1.99999 15.0464 1.99998 15.7106 2.04419 16.2518C2.09012 16.8139 2.18868 17.3306 2.43597 17.816C2.81947 18.5686 3.43139 19.1805 4.18404 19.564C4.66937 19.8113 5.18608 19.9099 5.74817 19.9558C6.28938 20 6.95374 20 7.75872 20H16.2413C17.0463 20 17.7106 20 18.2518 19.9558C18.8139 19.9099 19.3306 19.8113 19.816 19.564C20.5686 19.1805 21.1805 18.5686 21.564 17.816C21.8113 17.3306 21.9099 16.8139 21.9558 16.2518C21.9853 15.891 21.9951 15.4755 21.9984 15H22V14.2414V14.2413V9.75868V9.75858V9H21.9984C21.9951 8.52453 21.9853 8.10898 21.9558 7.74817C21.9099 7.18608 21.8113 6.66937 21.564 6.18404C21.1805 5.43139 20.5686 4.81947 19.816 4.43597C19.3306 4.18868 18.8139 4.09012 18.2518 4.04419C17.7106 3.99998 17.0464 3.99999 16.2414 4H16.2413ZM19.9982 9C19.9951 8.55447 19.9864 8.20463 19.9624 7.91104C19.9266 7.47262 19.8617 7.24842 19.782 7.09202C19.5903 6.7157 19.2843 6.40973 18.908 6.21799C18.7516 6.1383 18.5274 6.07337 18.089 6.03755C17.6389 6.00078 17.0566 6 16.2 6H7.8C6.94342 6 6.36113 6.00078 5.91104 6.03755C5.47262 6.07337 5.24842 6.1383 5.09202 6.21799C4.7157 6.40973 4.40973 6.7157 4.21799 7.09202C4.1383 7.24842 4.07337 7.47262 4.03755 7.91104C4.00078 8.36113 4 8.94342 4 9.8V14.2C4 15.0566 4.00078 15.6389 4.03755 16.089C4.07337 16.5274 4.1383 16.7516 4.21799 16.908C4.40973 17.2843 4.7157 17.5903 5.09202 17.782C5.24842 17.8617 5.47262 17.9266 5.91104 17.9624C6.36113 17.9992 6.94342 18 7.8 18H16.2C17.0566 18 17.6389 17.9992 18.089 17.9624C18.5274 17.9266 18.7516 17.8617 18.908 17.782C19.2843 17.5903 19.5903 17.2843 19.782 16.908C19.8617 16.7516 19.9266 16.5274 19.9624 16.089C19.9864 15.7954 19.9951 15.4455 19.9982 15H17C15.3431 15 14 13.6569 14 12C14 10.3431 15.3431 9 17 9H19.9982ZM18 12C18 12.5523 17.5523 13 17 13C16.4477 13 16 12.5523 16 12C16 11.4477 16.4477 11 17 11C17.5523 11 18 11.4477 18 12Z" fill="white"/>
</svg>
