<svg width="24" height="24" viewBox="0 0 24 24" fill="none" xmlns="http://www.w3.org/2000/svg">
<g clip-path="url(#clip0_2750_13319)">
<path d="M24 3H22.5V7.5H24V3Z" fill="white"/>
<path d="M24 9H22.5V13.5H24V9Z" fill="white"/>
<path d="M3.75 0H1.5C1.08525 0 0.75 0.336 0.75 0.75V23.25C0.75 23.664 1.08525 24 1.5 24H3.75V0Z" fill="white"/>
<path d="M18.6818 0H5.25V24H18.6818C19.9598 24 21 22.9905 21 21.75V2.25C21 1.0095 19.9598 0 18.6818 0ZM12.75 7.5C13.5787 7.5 14.25 8.17125 14.25 9C14.25 9.82875 13.5787 10.5 12.75 10.5C11.9212 10.5 11.25 9.82875 11.25 9C11.25 8.17125 11.9212 7.5 12.75 7.5ZM9 15C9 13.3433 10.3432 12 12 12H13.5C15.1567 12 16.5 13.3433 16.5 15H9Z" fill="white"/>
</g>
<defs>
<clipPath id="clip0_2750_13319">
<rect width="24" height="24" fill="white"/>
</clipPath>
</defs>
</svg>
