<svg width="24" height="24" viewBox="0 0 24 24" fill="none" xmlns="http://www.w3.org/2000/svg">
<path d="M22.5 5.25H12.75C12.5511 5.25 12.3603 5.32902 12.2197 5.46967C12.079 5.61032 12 5.80109 12 6C12 6.19891 12.079 6.38968 12.2197 6.53033C12.3603 6.67098 12.5511 6.75 12.75 6.75H22.5C22.6989 6.75 22.8897 6.67098 23.0303 6.53033C23.171 6.38968 23.25 6.19891 23.25 6C23.25 5.80109 23.171 5.61032 23.0303 5.46967C22.8897 5.32902 22.6989 5.25 22.5 5.25Z" fill="white"/>
<path d="M9 1.5H1.5C1.08579 1.5 0.75 1.83579 0.75 2.25V9.75C0.75 10.1642 1.08579 10.5 1.5 10.5H9C9.41421 10.5 9.75 10.1642 9.75 9.75V2.25C9.75 1.83579 9.41421 1.5 9 1.5Z" fill="white"/>
<path d="M22.5 17.25H12.75C12.5511 17.25 12.3603 17.329 12.2197 17.4697C12.079 17.6103 12 17.8011 12 18C12 18.1989 12.079 18.3897 12.2197 18.5303C12.3603 18.671 12.5511 18.75 12.75 18.75H22.5C22.6989 18.75 22.8897 18.671 23.0303 18.5303C23.171 18.3897 23.25 18.1989 23.25 18C23.25 17.8011 23.171 17.6103 23.0303 17.4697C22.8897 17.329 22.6989 17.25 22.5 17.25Z" fill="white"/>
<path d="M6.3105 18.0005L9.53025 14.7808C9.66687 14.6393 9.74246 14.4499 9.74076 14.2532C9.73905 14.0566 9.66017 13.8685 9.52111 13.7294C9.38206 13.5904 9.19395 13.5115 8.9973 13.5098C8.80065 13.5081 8.6112 13.5837 8.46975 13.7203L5.25 16.9401L2.03025 13.7203C1.8888 13.5837 1.69935 13.5081 1.5027 13.5098C1.30605 13.5115 1.11794 13.5904 0.978886 13.7294C0.83983 13.8685 0.760953 14.0566 0.759244 14.2532C0.757536 14.4499 0.833131 14.6393 0.96975 14.7808L4.1895 18.0005L0.96975 21.2203C0.898117 21.2895 0.84098 21.3722 0.801674 21.4637C0.762367 21.5553 0.741677 21.6537 0.740812 21.7533C0.739947 21.8528 0.758923 21.9516 0.796634 22.0438C0.834344 22.1359 0.890034 22.2197 0.960454 22.2901C1.03087 22.3605 1.11461 22.4162 1.20678 22.4539C1.29896 22.4916 1.39772 22.5106 1.4973 22.5097C1.59689 22.5089 1.6953 22.4882 1.7868 22.4489C1.87831 22.4096 1.96106 22.3524 2.03025 22.2808L5.25 19.061L8.46975 22.2808C8.6112 22.4174 8.80065 22.493 8.9973 22.4913C9.19395 22.4896 9.38206 22.4107 9.52111 22.2717C9.66017 22.1326 9.73905 21.9445 9.74076 21.7479C9.74246 21.5512 9.66687 21.3618 9.53025 21.2203L6.3105 18.0005Z" fill="white"/>
</svg>
